<svg width="375" height="344" viewBox="0 0 375 344" fill="none" xmlns="http://www.w3.org/2000/svg">
<path d="M0 151.121C0 151.121 54.0584 110 184.578 110C315.097 110 375 151.121 375 151.121V344H0V151.121Z" fill="#FFD3C0"/>
<path d="M142.12 117.957C127.221 138.3 107.941 155.34 85.9478 167.671C62.0939 181.045 35.1928 188.648 7.87043 189.822C-8.09656 190.507 -24.1243 189.052 -39.693 185.443C-41.8812 184.935 -42.9788 188.27 -40.7765 188.779C-12.5917 195.315 17.048 195.03 45.0839 187.821C70.8495 181.194 94.9453 168.68 115.341 151.614C126.495 142.284 136.474 131.592 145.066 119.862C146.406 118.036 143.449 116.141 142.12 117.957Z" fill="#DD7766"/>
<path d="M91.9792 104.961C92.9477 117.968 94.1746 131.123 92.0942 144.013C90.1469 156.193 84.8594 168.317 75.3996 176.123L74.9639 175.585C68.9124 151.161 75.4668 123.952 91.9792 104.961Z" fill="#DD7766"/>
<path d="M60.4314 111.532C62.5662 121.613 64.6966 131.854 64.0826 142.137C63.1628 157.276 56.4211 171.384 49.7274 184.997L49.5851 184.934C45.1476 181.229 42.4488 175.719 41.3224 170.045C40.222 164.372 40.5475 158.498 41.3845 152.77C43.6316 137.531 49.5917 122.453 60.4314 111.532Z" fill="#DD7766"/>
<path d="M181.207 95.635C176.011 104.532 170.705 113.548 163.339 120.749C152.482 131.34 138.01 137.256 123.903 142.836L123.84 142.693C123.045 136.967 124.749 131.073 127.729 126.115C130.727 121.176 134.917 117.045 139.386 113.365C151.294 103.595 165.84 96.4347 181.207 95.635Z" fill="#DD7766"/>
<path d="M115.667 89.3993C117.252 102.346 119.099 115.427 117.633 128.401C116.265 140.659 111.559 153.023 102.479 161.265L102.017 160.75C94.8166 136.64 100.073 109.15 115.667 89.3993Z" fill="#DD7766"/>
<path d="M175.862 151.389C167.412 158.783 156.052 162.768 144.817 162.288C133.71 161.803 122.836 156.966 115.06 148.988L115.267 148.774C124.567 143.611 135.303 141.063 145.923 141.521C156.566 141.992 167.047 145.443 175.862 151.389Z" fill="#DD7766"/>
<path d="M38.0994 124.214C37.3389 134.489 36.5278 144.919 33.0715 154.622C27.9672 168.905 17.5606 180.574 7.33821 191.782L7.21611 191.681C3.98889 186.886 2.93397 180.842 3.43379 175.079C3.95767 169.323 5.91008 163.772 8.30915 158.505C14.7172 144.498 24.6461 131.679 38.0994 124.214Z" fill="#DD7766"/>
<path d="M60.6423 27.5435C68.4966 47.3032 72.7228 68.4716 73.3313 89.7137C73.9363 110.831 71.0282 132.025 64.6449 152.169C61.0199 163.612 56.2682 174.668 50.4404 185.165C49.5233 186.815 52.0372 188.354 52.9603 186.691C63.4524 167.794 70.4739 147.108 73.9084 125.78C77.3492 104.401 77.1646 82.4423 73.2883 61.1346C71.1098 49.1631 67.728 37.4464 63.2327 26.1393C62.5342 24.3804 59.9498 25.8007 60.6423 27.5435Z" fill="#FCB5A4"/>
<path d="M41.92 78.572C32.9295 67.4941 27.0076 53.1108 29.1544 38.9924C50.5468 56.3503 68.7465 79.1571 74.7855 106.027C84.1331 87.202 100.449 71.1496 120.722 65.5855C118.33 72.9482 115.921 80.3731 112.272 87.2096C108.603 94.0419 103.585 100.332 96.9627 104.341C90.3205 108.345 81.9405 109.858 74.6408 107.21L74.4496 106.21C62.7671 98.0156 50.9146 89.6618 41.92 78.572Z" fill="#FCB5A4"/>
<path d="M40.4455 136.393C45.9402 140.871 50.7834 146.221 54.136 152.464C57.4249 158.59 59.2111 165.595 58.6431 172.491L58.2077 172.459C47.8666 168.748 38.7718 161.648 32.6631 152.511C26.5523 143.373 23.4615 132.265 23.9794 121.293C27.9238 127.668 34.6466 131.662 40.4455 136.393Z" fill="#FCB5A4"/>
<path d="M68.5422 144.267C57.2277 138.203 46.4077 130.764 38.4736 120.674C30.5455 110.595 25.7309 97.5728 27.4814 84.8582C36.5288 93.4752 46.4502 101.266 54.4865 110.835C62.4389 120.279 68.575 131.933 68.5562 144.261L68.5422 144.267Z" fill="#FCB5A4"/>
<path d="M86.2607 148.45C80.3107 147.923 74.5597 146.183 68.877 144.387C82.6227 129.04 104.345 121.233 124.737 124.353C116.682 129.642 112.616 139.639 104.456 144.767C99.1151 148.115 92.5278 149.008 86.2607 148.45Z" fill="#FCB5A4"/>
<path d="M76.3284 175.836C70.3784 175.31 64.6273 173.569 58.9447 171.773C72.6923 156.426 94.4131 148.621 114.805 151.739C106.749 157.031 102.686 167.025 94.5239 172.154C89.1827 175.501 82.5954 176.394 76.3284 175.836Z" fill="#FCB5A4"/>
<path d="M74.0099 78.7248C79.4557 71.2924 81.9292 61.9507 81.9633 52.733C81.9858 43.3567 79.5752 34.0823 76.0383 25.3821C72.4995 16.6819 67.8267 8.50568 63.1558 0.363606C57.1882 9.51852 54.3831 20.6978 55.2947 31.597C56.0297 40.1569 58.986 48.3974 62.6022 56.1886C66.1548 63.8309 70.3568 71.1383 74.0099 78.7248Z" fill="#FCB5A4"/>
</svg>
