<svg width="375" height="310" viewBox="0 0 375 310" fill="none" xmlns="http://www.w3.org/2000/svg">
<path d="M0 117.121C0 117.121 54.0584 76 184.578 76C315.097 76 375 117.121 375 117.121V310H0V117.121Z" fill="#FFD3C0"/>
<path d="M39.948 65.0978C37.27 68.9766 36.2988 73.8827 36.6836 78.5772C36.9657 81.9924 37.9159 85.3169 39.2706 88.4799C35.794 93.3976 35.0152 100.106 37.2898 105.688C38.7751 109.334 41.5452 112.418 44.9414 114.412H51.5926C53.3915 121.151 58.779 126.713 65.2378 129.483C70.7966 131.871 77.0328 132.324 83.037 131.398C82.6942 134.248 81.5412 136.988 79.7423 139.236C80.682 140.816 81.6123 142.408 82.5415 144C89.5367 143.104 95.8848 139.003 100.595 133.734C105.517 128.223 108.853 121.494 111.764 114.714V114.412H131.615C150.86 114.412 151.173 94.7978 151.305 94.7874C158.34 94.4643 165.273 92.0369 170.964 87.885C174.552 85.2658 177.715 81.8611 179.193 77.6801C180.485 74.014 180.273 69.6913 178.211 66.4574C179.687 60.6659 178.343 54.1969 174.613 49.5024C171.115 45.0797 165.607 42.3397 159.987 42.098C158.633 36.2949 154.589 31.1471 149.232 28.4977C144.361 26.09 138.528 25.7879 133.414 27.5704C129.381 22.0706 122.821 18.4532 115.998 18.0407C109.216 17.627 102.323 20.3868 97.6627 25.294C92.4175 22.2112 85.8269 21.435 80.0454 23.3291C75.052 24.9617 70.7663 28.5477 68.1478 33.0807C61.5176 32.4765 54.604 35.4083 50.5515 40.7082C46.5887 45.8653 45.5173 53.0593 47.6403 59.1843C44.5578 60.2522 41.818 62.3984 39.948 65.0978Z" fill="#FCB5A4"/>
<path d="M137.459 48.0508C136.019 46.6801 134.388 45.4858 132.638 44.5154C132.969 49.2866 132.644 54.0319 131.732 58.639C131.794 58.7188 131.861 58.793 131.92 58.8751C135.101 63.2235 134.071 68.8425 132.341 73.553C130.539 78.4603 128.124 83.1314 125.329 87.5405C125.145 87.8317 124.946 88.1106 124.759 88.3985C125.919 89.5342 127.194 90.5327 128.581 91.3188C129.475 89.4364 130.376 87.5574 131.503 85.802C133.843 82.1576 137.053 79.813 141.084 78.3276C142.805 77.6934 144.592 77.2143 146.371 76.7072C147.241 66.5508 145.08 55.2947 137.459 48.0508ZM118.665 42.6094C120.696 46.5507 120.483 51.1476 117.778 54.7314C115.645 57.5561 112.955 59.2158 109.97 60.2155C111.029 62.2081 111.992 64.2603 112.888 66.3259C115.292 62.8322 117.467 58.7334 121.216 56.5126C124.18 54.7584 127.539 55.0833 130.076 57.0017C130.822 52.5611 131.005 48.0261 130.608 43.5247C128.818 42.7668 126.932 42.2507 124.985 42.0775C122.838 41.8875 120.714 42.091 118.665 42.6094ZM112.277 38.5185C107.861 35.7905 102.385 35.4003 97.3259 35.6927C92.7237 35.9581 88.1787 36.9724 83.8626 38.5883C75.2606 41.8077 67.5046 47.5448 61.9869 54.9113C58.5481 59.5026 56.0653 64.6842 54.5843 70.1593C55.5436 69.2058 56.6128 68.368 57.8121 67.7226C60.2726 66.399 62.9686 66.0145 65.6164 66.3473C66.0607 64.755 66.5397 63.1774 67.0435 61.6267C68.3651 57.5673 70.0604 53.5372 72.6622 50.1244C75.1473 46.8611 78.5075 44.295 82.5174 43.265C86.8021 42.1652 91.2607 42.967 95.2144 44.8179C98.412 46.3146 101.083 48.3747 103.381 50.7889C106.68 46.7543 110.83 43.3392 115.634 41.5063C114.691 40.3233 113.539 39.3001 112.277 38.5185ZM83.3443 124.075C88.5344 124.071 92.9481 121.338 96.6786 117.942C100.522 114.446 104.024 110.515 107.551 106.704C107.601 106.65 107.649 106.596 107.698 106.543C105.833 106.281 103.993 105.803 102.25 105.09C99.2445 103.861 96.6247 102.162 94.2967 100.141C94.2428 100.158 94.1901 100.176 94.1363 100.192C92.5207 100.674 90.8624 101.093 89.184 101.42C89.1481 101.514 89.1167 101.61 89.0796 101.703C87.5078 105.728 85.2549 109.698 81.7331 112.316C78.1564 114.976 73.5328 115.549 69.385 113.95C64.9185 112.23 61.3384 108.734 58.437 105.008C58.9094 105.92 59.4053 106.819 59.936 107.697C64.8265 115.789 73.2669 124.084 83.3443 124.075ZM120.372 82.7378C121.238 84.1805 122.242 85.6131 123.384 86.9344C124.535 85.1397 125.64 83.3135 126.652 81.4289C127.94 79.0304 129.103 76.5621 130.09 74.0242C131.109 71.4052 132.031 68.6503 132.06 65.8121C132.076 64.3806 131.734 62.8457 131.098 61.4749C129.124 69.2485 125.451 76.5318 120.372 82.7378ZM119.381 80.9791C121.529 78.3107 123.42 75.4298 124.999 72.3622C127.133 68.2151 128.685 63.797 129.65 59.2541C128.159 57.5977 126.052 56.706 123.528 57.5685C119.314 59.0078 116.959 63.8599 114.593 67.284C114.329 67.6641 114.044 68.0318 113.774 68.4085C115.536 72.6366 117.201 76.9445 119.381 80.9791ZM122.266 88.656C121.074 87.3246 120.007 85.8583 119.041 84.3031C115.687 88.0982 111.782 91.4447 107.399 94.1873C103.97 96.334 100.292 98.096 96.4721 99.4285C97.7736 100.456 99.148 101.39 100.611 102.176C103.309 103.626 106.331 104.492 109.362 104.722C113.985 99.6388 118.43 94.356 122.266 88.656ZM104.871 78.7628C101.266 82.2532 97.3136 85.3961 93.1007 88.1207C92.9784 88.1983 92.8527 88.277 92.7304 88.3569C92.3288 90.4012 91.8867 92.4354 91.3718 94.4482C92.4174 95.6851 93.5315 96.867 94.7286 97.9577C98.0384 96.885 101.24 95.4861 104.278 93.7758C109.473 90.851 114.13 87.0536 118.033 82.5871C115.885 78.7459 114.234 74.5516 112.67 70.7789C112.596 70.5979 112.519 70.4168 112.444 70.2358C110.135 73.2606 107.603 76.1157 104.871 78.7628ZM99.0919 61.8179C98.099 64.1523 97.2788 66.5632 96.618 68.9854C95.1292 74.4425 94.2619 80.0851 93.2364 85.6851C100.282 80.9431 106.514 74.9822 111.561 68.1465C110.491 65.6445 109.35 63.1515 108.058 60.7631C105.204 61.4513 102.147 61.6728 99.0919 61.8179ZM70.8761 67.9767C71.124 68.1004 71.3529 68.2477 71.5919 68.3815C73.1962 66.9298 74.997 65.6614 76.9436 64.61C81.0544 62.3902 85.6027 61.0768 90.2173 60.4573C92.6979 60.1244 95.2066 60.0536 97.7153 59.9692C98.3076 58.6581 98.9606 57.3694 99.6921 56.1145C100.439 54.8303 101.274 53.5687 102.176 52.3452C100.041 50.0693 97.5503 48.1172 94.5581 46.6576C90.3542 44.6065 85.4501 43.9734 81.0521 45.803C77.1679 47.4188 74.3137 50.6472 72.2785 54.2478C70.0828 58.1296 68.7174 62.4307 67.5809 66.7251C68.7096 67.022 69.8158 67.4426 70.8761 67.9767ZM65.2652 77.7024C66.3086 74.7607 67.9938 72.1002 70.1457 69.813C69.1584 69.3092 68.1284 68.9055 67.0749 68.6255C66.2918 71.5683 65.5221 74.6404 65.2652 77.7024ZM88.6376 90.8454C88.9663 91.3289 89.3007 91.8113 89.6496 92.2836C89.6978 92.3499 89.7506 92.4118 89.7999 92.4781C89.9985 91.5954 90.1892 90.7127 90.3688 89.8311C89.7988 90.1763 89.2221 90.5148 88.6376 90.8454ZM81.4313 78.5873C83.5799 82.0654 85.4019 85.7346 87.5661 89.1969C88.5568 88.6324 89.5194 88.051 90.4473 87.4854C90.5988 87.3943 90.7435 87.2909 90.8938 87.1975C92.5375 78.7616 93.6774 69.9378 96.8873 61.9146C94.2383 62.0304 91.6298 62.1609 89.1963 62.5679C83.6169 63.5024 77.7065 65.6929 73.2557 69.4205C76.6384 71.7752 79.2615 75.0778 81.4313 78.5873ZM66.0708 85.4602C67.4889 89.5353 70.6483 92.8548 75.2494 93.0718C78.944 93.2461 82.5701 91.863 85.9225 90.1009C84.6087 88.06 83.3869 85.9527 82.2178 83.8421C79.5947 79.1113 76.7853 74.2243 72.2572 71.0713C72.1057 70.9656 71.9486 70.8677 71.7938 70.7665C69.8035 72.7513 68.2013 75.1026 67.2039 77.8609C66.3288 80.2819 65.9473 82.8997 66.0708 85.4602ZM89.9615 99.252C90.132 99.2149 90.307 99.1834 90.4765 99.1441C91.2012 98.9765 91.9193 98.7876 92.634 98.5897C91.9945 97.9566 91.3774 97.2988 90.7805 96.6196C90.5258 97.5034 90.2543 98.3817 89.9615 99.252ZM89.2457 94.7889C88.4659 93.8005 87.7198 92.7761 87.0029 91.7303C84.5066 93.0269 81.9014 94.103 79.2065 94.6596C74.8365 95.5614 70.4845 94.6495 67.4205 91.4874C68.87 94.8733 71.4763 97.6744 75.3448 99.053C79.3209 100.471 83.6371 100.378 87.7771 99.6759C88.347 98.078 88.825 96.4419 89.2457 94.7889ZM52.9889 81.023C52.8509 86.0674 53.4926 91.1287 54.8704 95.9786C57.2085 100.405 60.185 104.702 63.8628 108.094C67.4317 111.384 72.2168 113.951 77.1601 112.486C81.6019 111.169 84.5111 107.075 86.3948 103.069C86.5912 102.652 86.7673 102.226 86.9468 101.801C84.5088 102.137 82.0439 102.236 79.6127 101.974C75.1058 101.49 70.728 99.6883 67.8311 96.0832C65.4649 93.1371 64.2813 89.4161 64.0973 85.6637C63.1773 82.6209 63.1189 79.3149 63.5419 76.1303C63.8919 73.5024 64.4395 70.8644 65.1059 68.2589C62.825 68.0082 60.5082 68.3826 58.3731 69.6432C56.3772 70.8205 54.7986 72.5545 53.625 74.5459C53.266 76.6791 53.0483 78.8426 52.9889 81.023ZM103.492 53.8374C102.149 55.7344 100.983 57.7641 99.9726 59.8759C102.361 59.7612 104.74 59.561 107.078 59.0258C106.002 57.1996 104.824 55.451 103.492 53.8374ZM116.76 43.1863C115.255 43.7238 113.802 44.4266 112.426 45.2778C109.401 47.149 106.848 49.5351 104.689 52.2474C106.309 54.1669 107.731 56.2685 109.005 58.4759C112.753 57.2075 116.389 54.7134 117.674 50.8766C118.559 48.2274 118.062 45.5128 116.76 43.1863ZM125.218 97.6091C126.186 96.1642 126.985 94.6259 127.743 93.064C126.236 92.2442 124.873 91.2389 123.645 90.0773C120.123 95.259 116.13 100.098 111.945 104.764C117.14 104.512 122.1 102.27 125.218 97.6091ZM130.587 92.269C134.893 93.8972 139.433 92.5523 142.257 88.9472C144.498 86.0854 145.632 82.3915 146.145 78.7852C144.935 79.1305 143.725 79.4757 142.544 79.876C140.557 80.5484 138.592 81.3828 136.899 82.6456C135.074 84.0085 133.697 85.8549 132.56 87.8092C131.741 89.2182 131.031 90.6879 130.329 92.1621C130.416 92.197 130.5 92.2363 130.587 92.269ZM1.94818 0.938248C2.68979 11.8469 12.5887 18.7771 22.1488 21.7581C33.5029 25.2991 45.7647 25.8298 57.5743 25.8883C79.2929 25.994 101.344 23.8946 122.55 29.8285C131.657 32.3777 140.427 36.3697 147.809 42.3553C154.608 47.8664 161.837 56.2832 160.921 65.7086C160.512 69.9153 158.175 73.4473 154.559 75.594C152.566 76.7769 150.388 77.5326 148.176 78.1949C148.039 79.2744 147.862 80.3449 147.628 81.3997C146.76 85.3241 145.069 89.4139 141.951 92.0812C138.698 94.8643 134.264 95.6559 130.237 94.2098C129.98 94.1176 129.745 93.9995 129.497 93.8972C128.538 95.8707 127.524 97.8115 126.203 99.5759C122.383 104.673 116.264 106.959 110.141 106.762C108.474 108.583 106.786 110.384 105.091 112.17C101.673 115.775 98.3144 119.585 94.2002 122.416C90.1287 125.219 85.3884 126.534 80.4709 125.799C70.8626 124.362 63.0987 116.687 58.2564 108.681C56.0125 104.97 54.2892 100.968 53.0876 96.8164C52.1328 94.9947 51.3037 93.1134 50.6586 91.1748C49.1698 86.7027 48.7468 81.8202 50.248 77.2964C50.644 76.1011 51.1736 74.9384 51.8019 73.8308C52.9171 67.4414 55.2855 61.2781 58.9644 55.8176C64.086 48.2172 71.3529 42.0955 79.6553 38.252C87.9599 34.4063 97.9464 32.3811 107.008 34.3793C111.163 35.2958 115.098 37.4075 117.595 40.8653C118.46 40.6247 119.339 40.4212 120.239 40.2885C123.987 39.7352 127.639 40.2874 130.989 41.63C131.477 41.4253 132.172 41.6356 132.387 42.244C136.752 44.3378 140.52 47.7933 143.162 51.9561C146.023 56.4631 147.531 61.7144 148.148 66.9871C148.499 69.9783 148.611 73.0616 148.389 76.1056C150.036 75.5872 151.651 74.9867 153.165 74.1456C157.202 71.9045 159.317 67.9396 159.003 63.3303C158.359 53.861 150.305 46.174 142.96 41.1532C126.357 29.8038 105.438 27.5784 85.8619 27.5211C73.9278 27.4873 61.9914 28.1216 50.0595 27.6931C44.1176 27.4783 38.1825 26.9903 32.3114 26.0446C26.8778 25.1664 21.4655 23.9261 16.4179 21.6794C7.9977 17.9315 0.656826 10.5605 0.00273132 0.938248C-0.0825366 -0.315554 1.86404 -0.309931 1.94818 0.938248Z" fill="#DD7766"/>
</svg>
