<svg width="88" height="88" viewBox="0 0 88 88" fill="none" xmlns="http://www.w3.org/2000/svg">
<path d="M0 43.9998C0 19.6994 19.6998 0 44.0002 0C68.3011 0 88 19.6994 88 43.9998C88 68.3002 68.3011 88 44.0002 88C19.6998 88 0 68.3002 0 43.9998Z" fill="#DD7766"/>
<path d="M71.8777 55.351C23.2934 42.5732 43.5418 15.0989 43.5418 15.0989C43.5418 15.0989 51.0587 23.0885 43.7074 39.5709" stroke="white" stroke-width="1.5321" stroke-miterlimit="10" stroke-linecap="round" stroke-linejoin="round"/>
<path d="M41.1219 44.1513C36.5369 50.6589 27.9462 54.4949 15.6118 55.3304" stroke="white" stroke-width="1.5321" stroke-miterlimit="10" stroke-linecap="round" stroke-linejoin="round"/>
<path d="M44.219 68.8945C50.8606 73.124 58.9486 73.5042 65.7394 70.5C69.2309 68.9558 72.376 66.5149 74.8065 63.2435C71.4582 61.0912 67.7379 59.9217 63.9989 59.6737C56.4966 59.1764 48.9248 62.3952 44.1339 68.8419C44.1229 68.8566 44.1115 68.8712 44.101 68.8858L44.219 68.8945Z" stroke="white" stroke-width="1.5321" stroke-miterlimit="10" stroke-linecap="round" stroke-linejoin="round"/>
<path d="M44.0818 68.8945C37.4392 73.124 29.3522 73.5042 22.5614 70.5C19.0695 68.9558 15.9248 66.5149 13.4934 63.2435C16.8421 61.0912 20.5624 59.9217 24.3014 59.6737C31.8041 59.1764 39.376 62.3952 44.1664 68.8419C44.1774 68.8566 44.1884 68.8712 44.1998 68.8858L44.0818 68.8945Z" stroke="white" stroke-width="1.5321" stroke-miterlimit="10" stroke-linecap="round" stroke-linejoin="round"/>
</svg>
