<svg width="58" height="92" viewBox="0 0 58 92" fill="none" xmlns="http://www.w3.org/2000/svg">
<path d="M40.582 33.8298C40.0212 34.5008 40.1601 35.5106 40.8869 36.0011C42.5361 37.1144 45.6474 38.4683 49.0064 36.0803C51.7146 34.1548 53.3206 31.2607 54.2193 29.0373C54.8273 27.5326 53.4359 25.9832 51.8604 26.4202C48.8947 27.2428 44.4538 29.1967 40.582 33.8298Z" fill="#585C7F"/>
<path d="M46.19 36.8881C46.1843 36.7789 46.1778 36.6704 46.1707 36.5621C46.5506 36.3799 46.9357 36.1539 47.3242 35.8776C50.0324 33.9521 51.6384 31.0582 52.5371 28.8346C52.8146 28.1482 52.6755 27.4526 52.293 26.9404C52.3488 26.9219 52.4042 26.904 52.4591 26.8865C52.5669 26.852 52.6743 26.8271 52.7803 26.8113C53.0659 26.8846 53.3282 27.0418 53.5399 27.2751C53.9453 27.7227 54.0529 28.3234 53.8272 28.8817C52.9846 30.966 51.4218 33.8481 48.76 35.7402C47.8781 36.3676 47.0149 36.7257 46.19 36.8881Z" fill="#4F407C"/>
<path d="M44.9598 31.0721C44.8801 30.8743 44.7968 30.6798 44.7095 30.4867C44.761 30.437 44.8114 30.3871 44.8612 30.3363C47.4604 28.3945 50.0152 27.3668 51.9744 26.8234C52.0371 26.8061 52.0997 26.7926 52.1622 26.7829C52.2085 26.8331 52.2519 26.8858 52.293 26.9404C50.2691 27.6062 47.606 28.8306 44.9598 31.0721Z" fill="#BCBECC"/>
<path d="M52.2929 26.9403C52.2518 26.8857 52.2084 26.833 52.1621 26.7829C52.2432 26.7701 52.3241 26.764 52.4043 26.764C52.5325 26.764 52.6585 26.7798 52.7802 26.8112C52.6742 26.8271 52.5668 26.8519 52.459 26.8864C52.4041 26.9039 52.3487 26.9219 52.2929 26.9403Z" fill="#B9B3CB"/>
<path d="M52.4043 26.7639C52.2626 26.7639 52.1182 26.7833 51.9743 26.8233C49.0119 27.6451 44.687 29.5741 40.9075 34.0966C40.7145 34.3278 40.6281 34.6313 40.6708 34.9291C40.7135 35.2284 40.8748 35.4863 41.1249 35.6553C42.94 36.8802 45.7377 37.8892 48.7599 35.7401C51.4217 33.848 52.9845 30.9659 53.8271 28.8816C54.0528 28.3233 53.9452 27.7226 53.5397 27.275C53.2379 26.9421 52.8324 26.7639 52.4043 26.7639ZM45.1122 37.8245C43.2299 37.8247 41.6432 37.0182 40.6491 36.3469C40.2064 36.0484 39.9093 35.5742 39.8339 35.0466C39.758 34.5157 39.9119 33.9749 40.2565 33.5629L40.582 33.8298L40.2565 33.5629C44.1753 28.8735 48.6678 26.8712 51.7464 26.017C52.6282 25.7728 53.5565 26.0402 54.1688 26.7159C54.7847 27.3955 54.9544 28.3445 54.6117 29.1929C53.7273 31.3805 52.08 34.4103 49.253 36.4202C47.7987 37.4541 46.3875 37.8245 45.1122 37.8245Z" fill="#AB5244"/>
<path d="M45.7966 38.0585C45.7966 53.9737 29.1919 53.3506 29.1919 53.3506C29.1919 53.3506 12.5872 53.9737 12.5872 38.0585C12.5872 36.2548 12.8007 34.638 13.1787 33.1895C14.2087 29.239 16.4642 26.5361 18.966 24.6884C19.0904 24.5962 19.2147 24.5064 19.3404 24.4192C25.2277 20.3073 33.1546 20.3073 39.0422 24.4192C42.6188 26.9164 45.7966 31.0953 45.7966 38.0585Z" fill="#585C7F"/>
<path d="M38.8815 27.118C38.8257 27.0398 38.7696 26.9623 38.7135 26.8854C34.0344 20.4916 24.3493 20.4916 19.6702 26.8854C19.6151 26.9608 19.5599 27.0372 19.5048 27.114C16.9438 30.6981 15.6652 35.0499 16.0497 39.4245C16.4931 44.4722 19.1884 50.2408 29.1919 50.2408C39.4177 50.2408 42.0066 44.2129 42.3603 39.0893C42.6548 34.8249 41.3738 30.6073 38.8815 27.118Z" fill="white"/>
<path d="M28.9799 52.9343C27.955 52.9343 23.1158 52.7906 19.0504 50.2187C18.9068 48.7167 18.672 47.0768 18.2902 45.8432C20.1825 48.3778 23.5074 50.2409 29.1918 50.2409C34.8765 50.2409 38.2011 48.378 40.0935 45.8432C39.7117 47.0768 39.4769 48.7167 39.3332 50.2187C35.2672 52.7913 30.4277 52.9343 29.4035 52.9343C29.2823 52.9343 29.2145 52.9324 29.2076 52.9322C29.2023 52.932 29.1971 52.932 29.1918 52.932C29.1866 52.932 29.1811 52.932 29.1761 52.9322C29.1694 52.9324 29.1014 52.9343 28.9799 52.9343ZM14.7493 45.6777C14.635 45.4681 14.5262 45.2541 14.4231 45.0362C14.4563 44.9561 14.4856 44.8835 14.5107 44.8197C14.6701 44.8483 14.8371 44.8767 15.0111 44.9041C14.8775 45.1809 14.7966 45.4643 14.7493 45.6777ZM43.6343 45.6777C43.5102 45.1182 43.1561 44.0768 42.2226 43.9397C43.6436 42.3988 44.7881 40.382 45.3723 37.7465C45.3737 37.85 45.3744 37.9543 45.3744 38.0588C45.3744 41.0068 44.7907 43.5558 43.6343 45.6777ZM13.1856 40.747C13.1161 40.2414 13.0672 39.7221 13.0388 39.1881C13.2307 39.4122 13.4292 39.6273 13.6335 39.8339C13.6492 39.875 13.6657 39.9171 13.6817 39.9578C13.5022 40.2308 13.3369 40.4948 13.1856 40.747Z" fill="#4F407C"/>
<path d="M29.192 50.2408C23.5075 50.2408 20.1826 48.3778 18.2903 45.8432C18.2834 45.8214 18.2767 45.7997 18.2698 45.7781C22.5033 48.751 27.7492 48.9285 28.9426 48.9285C29.1046 48.9285 29.192 48.9252 29.192 48.9252C29.192 48.9252 29.2791 48.9285 29.4413 48.9285C30.6355 48.9285 35.8813 48.7505 40.1142 45.7779C40.1072 45.7997 40.1006 45.8214 40.0936 45.8432C38.2013 48.378 34.8767 50.2408 29.192 50.2408Z" fill="#FCB5A4"/>
<path d="M42.0321 34.2782C41.9085 33.6783 41.7543 33.0845 41.571 32.4995C42.5187 32.0906 43.34 31.6138 44.0383 31.0683C44.3516 31.7939 44.61 32.5536 44.8133 33.3471C44.0154 33.6622 43.0914 33.9799 42.0321 34.2782Z" fill="#4F407C"/>
<path d="M29.1919 52.932C29.1971 52.932 29.2024 52.932 29.2076 52.9322C29.2819 52.9346 36.6403 53.1499 41.3669 48.6376C44.0262 46.0989 45.3745 42.5399 45.3745 38.0587C45.3745 32.2825 43.1621 27.8087 38.7987 24.7614C33.052 20.7476 25.3301 20.7476 19.5841 24.7617C15.2214 27.8092 13.0093 32.283 13.0093 38.0587C13.0093 42.5399 14.3576 46.0989 17.0166 48.6376C21.7432 53.1497 29.1022 52.9348 29.1761 52.9322C29.1812 52.932 29.1866 52.932 29.1919 52.932ZM29.493 53.7734C29.3398 53.7734 29.2372 53.7708 29.1919 53.7692C28.6984 53.7857 21.3602 53.9417 16.4351 49.245C13.6011 46.5421 12.1641 42.7786 12.1641 38.0587C12.1641 31.9949 14.4967 27.2908 19.0968 24.0776L19.3404 24.4196L19.0968 24.0776C25.1344 19.86 33.2477 19.8598 39.2858 24.0771C43.8869 27.2904 46.2197 31.9946 46.2197 38.0587C46.2197 42.7786 44.7827 46.5421 41.9487 49.245C37.4753 53.5113 31.0112 53.7734 29.493 53.7734Z" fill="#AB5244"/>
<path d="M44.9539 29.6099C42.3146 32.7627 36.7554 33.9537 29.192 33.9537C21.6285 33.9537 16.0694 32.7627 13.4301 29.6099C10.7918 26.4572 12.6149 23.972 12.6149 23.972C12.603 23.6633 12.5944 23.3596 12.5896 23.0605C12.4653 13.7234 16.4836 8.81254 20.5986 6.23278C23.214 4.59307 26.2024 3.77262 29.192 3.77262C32.1816 3.77262 35.17 4.59307 37.7854 6.23278C42.0321 8.89504 46.1759 14.0404 45.769 23.972C45.769 23.972 47.5922 26.4572 44.9539 29.6099Z" fill="white"/>
<path d="M37.7852 6.2328C35.1698 4.59309 32.1814 3.77264 29.1918 3.77264C26.2022 3.77264 23.2139 4.59309 20.5985 6.2328C16.4835 8.81256 12.4652 13.7234 12.5895 23.0606H12.5907L12.8131 22.9424C14.1229 22.2456 15.0429 20.9947 15.2996 19.5441C15.8356 16.515 17.3569 11.4642 21.5415 11.4642C27.5183 11.4642 26.2698 26.0901 26.2698 26.0901L29.1918 26.6749L32.1139 26.0901C32.1139 26.0901 30.8654 11.4642 36.8421 11.4642C41.0268 11.4642 42.5481 16.515 43.084 19.5441C43.3406 20.9947 44.2607 22.2456 45.5706 22.9424L45.793 23.0606H45.7942C45.9185 13.7234 41.9002 8.81256 37.7852 6.2328Z" fill="#585C7F"/>
<path d="M33.0106 33.4171C32.8402 33.2642 32.4077 33.9855 32.1779 33.9292C31.0964 33.664 29.5806 33.9292 27.2919 33.9292C25.7821 33.9292 23.4461 32.9378 21.8153 33.4171C17.6965 32.8087 15.3471 31.2432 13.7559 29.3426C12.4537 27.787 12.3164 26.4286 12.4708 25.5013C12.6904 25.9709 13.0008 26.4657 13.4301 26.9786C16.0694 30.1313 21.6286 31.3226 29.192 31.3226C36.7555 31.3226 42.3146 30.1313 44.9539 26.9786C45.3832 26.4659 45.6934 25.971 45.9132 25.5015C46.0674 26.429 45.9302 27.7875 44.6282 29.3426C42.6659 31.6864 38.848 33.0297 33.0106 33.4171Z" fill="#FCB5A4"/>
<path d="M13.8423 16.0405C13.8883 15.876 13.9365 15.7129 13.9864 15.5515C14 15.5444 14.0139 15.5373 14.0275 15.5304C13.9635 15.6987 13.9017 15.8687 13.8423 16.0405ZM44.539 16.0318C44.4962 15.9089 44.4523 15.7862 44.4075 15.6652C44.417 15.6704 44.427 15.6758 44.4368 15.681C44.4719 15.7973 44.5058 15.9141 44.539 16.0318Z" fill="#421C78"/>
<path d="M29.1919 4.19641C26.2784 4.19641 23.3659 4.99298 20.824 6.58683C15.326 10.0341 12.7063 15.8774 13.0377 23.9545C13.0415 24.0485 13.0131 24.1412 12.9573 24.2173C12.8926 24.3076 11.3718 26.495 13.7558 29.3426C16.1177 32.1637 21.167 33.5351 29.1919 33.5351C37.2169 33.5351 42.2661 32.1637 44.6281 29.3426C47.012 26.495 45.4912 24.3076 45.4253 24.2159C45.3709 24.1403 45.3423 24.0471 45.3461 23.9545C45.6776 15.8774 43.0579 10.0341 37.5598 6.58683C35.0183 4.99321 32.1047 4.19641 29.1919 4.19641ZM29.1919 34.3723C20.8997 34.3723 15.6376 32.9018 13.105 29.8768C10.6409 26.9335 11.8372 24.4518 12.1882 23.8592C12.0188 19.3091 12.7922 15.381 14.4874 12.1817C15.8636 9.5852 17.8433 7.46472 20.3721 5.87914C25.7298 2.52006 32.654 2.52006 38.0117 5.87914C40.5405 7.46472 42.5205 9.5852 43.8964 12.1817C45.5917 15.381 46.3651 19.3091 46.1956 23.8592C46.5467 24.4518 47.7429 26.9335 45.2788 29.8768C42.7462 32.9018 37.4841 34.3723 29.1919 34.3723Z" fill="#AB5244"/>
<path d="M34.5904 5.13842L33.7439 5.60975C33.7377 5.61329 33.7341 5.61448 33.7341 5.61448L27.7259 8.95251C27.7259 8.95251 22.4989 8.31266 23.7932 0.419027L29.5757 4.27614C29.5757 4.27614 29.5576 3.67812 29.6519 3.00469C29.728 2.46411 29.8764 1.87578 30.1661 1.50728C30.1661 1.50728 32.3238 3.2153 34.5904 5.13842Z" fill="#585C7F"/>
<path d="M27.7256 8.95293C27.4915 9.01652 27.25 9.01841 27.0159 8.99217C26.7806 8.96617 26.5513 8.90542 26.3303 8.82151C25.8871 8.65345 25.4943 8.37572 25.1347 8.0682C24.7763 7.75713 24.4627 7.3943 24.2017 6.9998C23.9447 6.6034 23.7282 6.18053 23.5717 5.74088C23.5259 5.63239 23.4965 5.52011 23.4598 5.40972C23.4256 5.29815 23.3901 5.18706 23.366 5.07407L23.2858 4.73606L23.2254 4.39593C23.2047 4.28247 23.1856 4.16901 23.1748 4.05508C23.1612 3.94138 23.1491 3.82745 23.1379 3.71352C23.1209 3.48589 23.1128 3.25827 23.1044 3.03112C23.0928 2.1225 23.1915 1.22453 23.3755 0.351608L23.3779 0.339079C23.4223 0.112163 23.6438 -0.0360413 23.8728 0.00768757C23.9296 0.0185614 23.9836 0.0414886 24.0289 0.0715084L29.8114 3.92862L29.1531 4.28861C29.1478 4.02388 29.1569 3.78254 29.1736 3.52986C29.1903 3.27978 29.2172 3.02923 29.2602 2.77702C29.3029 2.52481 29.3564 2.27166 29.4439 2.01567C29.5318 1.76086 29.6413 1.50037 29.8332 1.25029C29.9604 1.08412 30.1902 1.04063 30.3684 1.14014L30.3703 1.14133C30.8187 1.39117 31.2451 1.64621 31.673 1.91237C32.0997 2.17734 32.5199 2.45224 32.9354 2.73494C33.3511 3.0167 33.7598 3.30956 34.1624 3.61188C34.5667 3.9116 34.9583 4.22999 35.3465 4.55335L34.7967 5.18919C34.4225 4.87789 34.0445 4.57013 33.6515 4.27868C33.2606 3.98511 32.8626 3.69981 32.4564 3.42468C32.0512 3.14907 31.6403 2.88007 31.2234 2.62125C30.808 2.36266 30.3818 2.10808 29.9623 1.87455L30.4994 1.76535C30.3975 1.89771 30.3126 2.08256 30.246 2.27945C30.1777 2.47706 30.1312 2.69405 30.094 2.9134C30.0565 3.13323 30.0319 3.3592 30.0167 3.58659C30.0016 3.81138 29.9935 4.04893 29.9978 4.26285L29.9981 4.26734C30.0028 4.49851 29.8174 4.6895 29.584 4.69423C29.4936 4.69612 29.4091 4.66964 29.3394 4.62308L23.5567 0.765965L24.2098 0.485629V0.485865C24.1177 1.33278 24.0547 2.17592 24.0762 3.00984C24.1036 3.84187 24.2127 4.66515 24.4642 5.43525C24.5837 5.8229 24.7543 6.18904 24.9574 6.53367C25.16 6.87877 25.4046 7.19811 25.6879 7.48247C25.8277 7.62665 25.9824 7.75595 26.1406 7.88123C26.3043 7.99894 26.4673 8.11973 26.6381 8.23366C26.9784 8.46861 27.3287 8.69245 27.7256 8.95293Z" fill="#AB5244"/>
<path d="M31.2373 27.1065C31.2373 27.4631 30.9947 28.0051 30.6615 28.5091C30.2139 29.1846 29.6025 29.7919 29.1913 29.7919C28.7465 29.7919 28.1234 29.1619 27.6834 28.471C27.3686 27.9789 27.1462 27.4551 27.1462 27.1065C27.1462 25.6239 28.0619 24.421 29.1913 24.421C30.3217 24.421 31.2373 25.6239 31.2373 27.1065Z" fill="#AB5244"/>
<path d="M30.6808 28.5091C30.2331 29.1846 29.6217 29.7919 29.2106 29.7919C28.7657 29.7919 28.1427 29.1619 27.7026 28.471C28.0954 28.3358 28.5961 28.254 29.1402 28.254C29.7324 28.254 30.2734 28.3512 30.6808 28.5091Z" fill="#FCB5A4"/>
<path d="M29.192 24.7799C28.2635 24.7799 27.5082 25.8237 27.5082 27.1068C27.5082 27.818 28.4866 29.4336 29.192 29.4336C29.8974 29.4336 30.8758 27.818 30.8758 27.1068C30.8758 25.8237 30.1205 24.7799 29.192 24.7799ZM29.192 30.1508C27.9482 30.1508 26.7839 28.0577 26.7839 27.1068C26.7839 25.4283 27.8642 24.0628 29.192 24.0628C30.5197 24.0628 31.6 25.4283 31.6 27.1068C31.6 28.0577 30.4357 30.1508 29.192 30.1508Z" fill="#AB5244"/>
<path d="M32.028 26.304C32.028 26.8649 30.7585 27.0264 29.1919 27.0264C27.6252 27.0264 26.3557 26.8649 26.3557 26.304C26.3557 25.9131 26.9726 25.0087 27.8763 24.4962C28.2688 24.2731 28.717 24.1242 29.1919 24.1242C29.6181 24.1242 30.0216 24.2438 30.3841 24.4296C31.3551 24.9264 32.028 25.8958 32.028 26.304Z" fill="#FCB5A4"/>
<path d="M31.5034 25.3207C31.2189 24.9907 30.8335 24.6595 30.3839 24.4296C30.8335 24.6595 31.2189 24.9907 31.5034 25.3207ZM27.3127 24.8919C27.4834 24.747 27.6724 24.6116 27.8762 24.496C27.9749 24.44 28.0773 24.3884 28.1828 24.3428C28.0773 24.3884 27.9749 24.44 27.8762 24.4962C27.6724 24.6116 27.4834 24.747 27.3127 24.8919ZM30.3839 24.4296C30.3243 24.3991 30.2632 24.3702 30.2014 24.3433C30.2632 24.37 30.3243 24.3991 30.3839 24.4296Z" fill="#BCBECC"/>
<path d="M30.2015 24.3433C29.8879 24.2076 29.5476 24.1241 29.1918 24.1241C28.8365 24.1241 28.4962 24.2076 28.1829 24.3428C28.4962 24.2076 28.8365 24.1241 29.1918 24.1241C29.5476 24.1241 29.8879 24.2076 30.2015 24.3433Z" fill="#B099C8"/>
<path d="M31.8908 26.5872C31.8891 26.5836 31.8872 26.5801 31.8853 26.5765C31.9664 26.4983 32.0101 26.408 32.0101 26.304C32.0101 26.2704 32.0165 26.2553 32.0242 26.2487C32.0266 26.2681 32.028 26.2865 32.028 26.304C32.028 26.413 31.9796 26.5066 31.8908 26.5872ZM26.3602 26.3602C26.3574 26.3427 26.356 26.325 26.3557 26.3066V26.3064C26.3557 26.3054 26.3557 26.3047 26.3557 26.304C26.3557 26.0012 26.7258 25.3902 27.3129 24.8919C27.4835 24.747 27.6725 24.6116 27.8763 24.4962C27.9751 24.44 28.0774 24.3884 28.1829 24.3428C28.4962 24.2076 28.8365 24.1242 29.1919 24.1242C29.5477 24.1242 29.8879 24.2076 30.2015 24.3433C30.2633 24.3702 30.3244 24.3991 30.3841 24.4296C30.8336 24.6596 31.219 24.9907 31.5035 25.3207C31.7731 25.6332 31.9521 25.9447 32.0087 26.1678C31.9996 26.1537 31.9889 26.1369 31.9762 26.117C31.892 26.1702 31.7791 26.1962 31.6433 26.2031C31.3522 25.8194 30.9126 25.4093 30.3841 25.1387C30.0218 24.9529 29.6181 24.8333 29.1919 24.8333C28.717 24.8333 28.2688 24.9822 27.8763 25.2053C27.3403 25.5093 26.9065 25.9504 26.6416 26.3409C26.5638 26.3316 26.4963 26.3111 26.4402 26.2754C26.4022 26.3347 26.377 26.3574 26.3602 26.3602Z" fill="#DD7766"/>
<path d="M26.7985 26.7704C26.5303 26.6692 26.3656 26.5326 26.3411 26.3518C26.3449 26.3572 26.3501 26.3605 26.3566 26.3605C26.3578 26.3605 26.359 26.3605 26.3602 26.3603C26.3881 26.5331 26.5453 26.6647 26.799 26.7635C26.7988 26.7659 26.7985 26.768 26.7985 26.7704ZM32.0241 26.2487C32.021 26.2234 32.0157 26.1965 32.0086 26.1681C32.0518 26.236 32.058 26.2459 32.0511 26.2459C32.0496 26.2459 32.0475 26.2454 32.0453 26.2452C32.0429 26.2447 32.0403 26.2442 32.0374 26.2442C32.0332 26.2442 32.0284 26.2452 32.0241 26.2487Z" fill="#C3B2D5"/>
<path d="M29.1748 27.0266C28.5538 27.0266 27.9797 27.0013 27.5127 26.9356C27.5127 26.9349 27.5127 26.934 27.5129 26.933C27.9828 27.0004 28.5634 27.0264 29.1919 27.0264C29.3113 27.0264 29.4289 27.0254 29.5442 27.0233C29.4232 27.0257 29.2998 27.0266 29.1748 27.0266Z" fill="#AB5244"/>
<path d="M27.5126 26.9357C27.2312 26.8962 26.9888 26.8423 26.7986 26.7704C26.7986 26.7681 26.7988 26.766 26.7991 26.7636C26.9881 26.8373 27.2305 26.8927 27.5128 26.9331C27.5126 26.934 27.5126 26.935 27.5126 26.9357Z" fill="#AB5244"/>
<path d="M29.192 27.0264C28.5634 27.0264 27.9828 27.0004 27.5129 26.933C27.2306 26.8926 26.9882 26.8373 26.7992 26.7635C26.5455 26.6647 26.3883 26.5331 26.3604 26.3603C26.3742 26.4456 26.42 26.521 26.493 26.5872C26.5341 26.5089 26.5837 26.4262 26.6417 26.3409C26.6744 26.3449 26.7088 26.3466 26.745 26.3466C27.2922 26.3466 28.2238 25.932 29.1748 25.932C30.0706 25.932 30.9881 26.205 31.5625 26.205C31.5905 26.205 31.6174 26.2045 31.6434 26.2031C31.7417 26.3326 31.8234 26.4593 31.8854 26.5766C31.5642 26.8857 30.6553 27.0032 29.5442 27.0233C29.4289 27.0254 29.3113 27.0264 29.192 27.0264ZM32.0243 26.2487C32.0212 26.2234 32.0159 26.1965 32.0088 26.1679C32.0088 26.1679 32.0088 26.1679 32.0088 26.1681C32.0159 26.1965 32.0212 26.2234 32.0243 26.2487Z" fill="#DD7766"/>
<path d="M26.493 26.5872C26.42 26.521 26.3742 26.4456 26.3604 26.3602C26.3771 26.3574 26.4024 26.3347 26.4403 26.2754C26.4964 26.3111 26.5639 26.3316 26.6417 26.3409C26.5837 26.4262 26.5341 26.5089 26.493 26.5872ZM31.8854 26.5765C31.8234 26.4593 31.7417 26.3326 31.6434 26.2031C31.7792 26.1962 31.8921 26.1702 31.9763 26.117C31.989 26.1369 31.9997 26.1537 32.0088 26.1678C32.0159 26.1964 32.0212 26.2234 32.0243 26.2487C32.0166 26.2553 32.0102 26.2704 32.0102 26.304C32.0102 26.408 31.9665 26.4983 31.8854 26.5765Z" fill="#C39E97"/>
<path d="M26.3412 26.3517C26.335 26.3429 26.3319 26.3285 26.3307 26.3143C26.3288 26.2912 26.3319 26.268 26.3347 26.268C26.3364 26.268 26.3381 26.2779 26.3381 26.3039C26.3381 26.32 26.339 26.3361 26.3412 26.3517Z" fill="#C3B2D5"/>
<path d="M29.192 24.483C28.8174 24.483 28.4353 24.5919 28.0564 24.8073C27.1782 25.3055 26.7181 26.1144 26.7181 26.304C26.7241 26.3151 26.9191 26.6677 29.192 26.6677C31.3975 26.6677 31.6466 26.3356 31.6659 26.3021C31.6631 26.0962 31.1498 25.2252 30.2182 24.7484C29.8748 24.5721 29.5297 24.483 29.192 24.483ZM29.192 27.3849C27.6106 27.3849 25.9939 27.2565 25.9939 26.304C25.9939 25.7587 26.6931 24.7541 27.6963 24.1849C28.6291 23.6549 29.6096 23.6285 30.5508 24.1111C31.6034 24.6498 32.3902 25.7133 32.3902 26.304C32.3902 27.2565 30.7735 27.3849 29.192 27.3849Z" fill="#AB5244"/>
<path d="M10.9412 48.3558C10.8861 48.2192 10.9085 47.8682 10.95 47.5068C11.0214 47.4595 11.0913 47.4101 11.1595 47.3593C11.2662 47.5931 11.3929 47.824 11.5428 48.0457C11.418 48.1405 11.2908 48.2197 11.1619 48.2802C11.0469 48.3341 10.977 48.3509 10.9412 48.3558ZM13.5626 45.0764C13.412 44.9835 13.2593 44.8994 13.1068 44.823C13.1777 44.6717 13.2395 44.5292 13.2927 44.3987C13.4328 44.4968 13.5855 44.5781 13.748 44.6403C13.6945 44.7732 13.6322 44.9202 13.5626 45.0764Z" fill="#3C859B"/>
<path d="M19.3077 35.1714C19.3032 35.226 19.2951 35.3118 19.2915 35.3896C19.2858 35.4693 19.2879 35.5518 19.2865 35.6335C19.2896 35.7985 19.3013 35.9645 19.3235 36.1304C19.3724 36.4606 19.4521 36.796 19.5898 37.1161C19.7258 37.4394 19.9091 37.7571 20.1184 38.0611C20.3303 38.3634 20.5646 38.6582 20.8495 38.9068L20.8521 38.9089C20.8753 38.9295 20.8777 38.9645 20.8572 38.9877C20.8414 39.0054 20.8171 39.0106 20.7961 39.0033C20.4119 38.8673 20.0795 38.6279 19.7733 38.3667C19.4719 38.098 19.196 37.7945 18.971 37.4415C18.7438 37.0879 18.5715 36.6901 18.4916 36.2668C18.4513 36.0555 18.4319 35.8389 18.4401 35.6217C18.4441 35.5125 18.4539 35.4038 18.4725 35.2939C18.4921 35.1818 18.5155 35.0785 18.5634 34.949C18.6374 34.7502 18.86 34.6486 19.0605 34.7216C19.2275 34.7826 19.3268 34.9457 19.3127 35.1133L19.3077 35.1714Z" fill="#AB5244"/>
<path d="M16.7784 37.2721C16.7624 37.521 16.7788 37.799 16.8311 38.0857C16.885 38.3715 16.9602 38.6679 17.0666 38.9596C17.1253 39.1099 17.1704 39.2368 17.2454 39.3692C17.3189 39.4994 17.4005 39.6325 17.4962 39.758C17.6842 40.0119 17.9021 40.2551 18.1612 40.4584L18.1636 40.4605C18.1882 40.4797 18.1923 40.5149 18.1727 40.539C18.1586 40.5567 18.136 40.5636 18.1154 40.5586C17.7673 40.4756 17.4539 40.2951 17.1676 40.0811C17.0268 39.9705 16.8879 39.8519 16.765 39.7126C16.6407 39.5765 16.524 39.411 16.4362 39.2626C16.2519 38.9553 16.0914 38.6241 16.0062 38.2587C15.9222 37.8971 15.8878 37.4957 16.0221 37.0936C16.0897 36.8915 16.3099 36.7816 16.5142 36.8485C16.686 36.905 16.7915 37.0683 16.7805 37.239L16.7784 37.2721Z" fill="#AB5244"/>
<path d="M16.2216 53.6522C17.7708 54.046 19.2489 52.8186 19.1279 51.2391C18.9096 48.3883 18.3734 44.5319 17.0643 44.0586C14.9581 43.2973 14.6887 46.0309 14.6887 46.0309C14.0966 45.3315 13.3172 44.8824 12.5987 44.5957C11.5819 44.1901 10.5327 45.0613 10.7584 46.1236C10.9178 46.8745 11.228 47.7132 11.8201 48.4126C11.8201 48.4126 9.05552 48.198 9.44449 50.3851C9.68622 51.7445 13.4258 52.9412 16.2216 53.6522Z" fill="#FEB71F"/>
<path d="M14.7495 45.6777C14.7968 45.4643 14.8777 45.1809 15.0113 44.9041C14.8777 45.1809 14.7968 45.4643 14.7495 45.6777Z" fill="#CAC5D7"/>
<path d="M15.5457 44.2047C15.763 44.0348 16.0339 43.9246 16.3713 43.9246C16.0339 43.9246 15.763 44.0348 15.5457 44.2047Z" fill="#C0E1F1"/>
<path d="M15.0112 44.9041C15.137 44.6433 15.3098 44.3888 15.5458 44.2046C15.3098 44.3888 15.137 44.6433 15.0112 44.9041Z" fill="#C3B2D5"/>
<path d="M14.8096 46.9877C14.2175 46.2882 13.4382 45.8391 12.7196 45.5524C12.5454 45.4829 12.3703 45.451 12.2009 45.451C11.5491 45.451 10.9807 45.9245 10.869 46.561C10.8268 46.4133 10.7889 46.2665 10.7586 46.1235C10.7376 46.0256 10.7278 45.9292 10.7275 45.8354C10.7263 45.0856 11.3513 44.4942 12.0799 44.4942C12.2495 44.4942 12.4247 44.5261 12.5989 44.5956C13.3174 44.8823 14.0968 45.3314 14.6888 46.0308C14.6888 46.0308 14.6946 45.9715 14.7113 45.8725C14.7206 45.8183 14.733 45.7524 14.7494 45.6777C14.7967 45.4643 14.8776 45.1808 15.0112 44.9041C15.137 44.6433 15.3098 44.3888 15.5458 44.2046C15.7632 44.0347 16.034 43.9245 16.3714 43.9245C16.5769 43.9245 16.8069 43.9654 17.0644 44.0586C17.1656 44.0952 17.2622 44.1519 17.3546 44.2271C17.6393 44.6329 17.8677 45.2529 18.0504 45.9791C17.8082 45.4834 17.5221 45.1371 17.1852 45.0154C16.9277 44.9223 16.6976 44.8814 16.4922 44.8814C15.0172 44.8814 14.8096 46.9877 14.8096 46.9877Z" fill="#FFE9BB"/>
<path d="M19.1342 51.3608C19.1334 51.3259 19.1318 51.2906 19.1292 51.2552C19.1308 51.2561 19.133 51.2573 19.1346 51.2583C19.1351 51.2928 19.1351 51.3268 19.1342 51.3608Z" fill="#4F72B8"/>
<path d="M18.2697 45.7782C18.2537 45.7669 18.2367 45.7548 18.2205 45.7435C18.1518 45.5399 18.0788 45.3494 18.0007 45.1747C18.0174 45.175 18.0344 45.1755 18.0511 45.1757C18.1286 45.3617 18.2014 45.5636 18.2697 45.7782Z" fill="#C3B2D5"/>
<path d="M19.0505 50.2186C19.0464 50.216 19.0426 50.2137 19.0383 50.2108C18.8851 48.6579 18.6341 46.974 18.2239 45.7536C18.2458 45.7836 18.2678 45.8131 18.2902 45.8432C18.672 47.0768 18.9068 48.7167 19.0505 50.2186Z" fill="#482D7A"/>
<path d="M18.2901 45.8431C18.2677 45.8131 18.2458 45.7836 18.2238 45.7536C18.2228 45.75 18.2217 45.7467 18.2205 45.7434C18.2367 45.7547 18.2536 45.7668 18.2696 45.7781C18.2765 45.7996 18.2832 45.8214 18.2901 45.8431Z" fill="#997CB8"/>
<path d="M19.1347 51.2583C19.1331 51.2574 19.1309 51.2562 19.1293 51.2552C19.129 51.2498 19.1285 51.2444 19.1281 51.2392C19.1028 50.9078 19.0732 50.5629 19.0383 50.2109C19.0426 50.2138 19.0464 50.2161 19.0505 50.2187C19.0801 50.527 19.1059 50.8291 19.1281 51.121C19.1316 51.1671 19.1338 51.2129 19.1347 51.2583Z" fill="#AB5244"/>
<path d="M17.6205 44.3928C17.5876 44.3914 17.5547 44.39 17.522 44.3883C17.4678 44.3278 17.412 44.2739 17.3544 44.2271C17.2864 44.1302 17.2153 44.0456 17.1409 43.9747C17.3144 44.0569 17.474 44.1999 17.6205 44.3928Z" fill="#316EB5"/>
<path d="M18.051 45.1757C18.0343 45.1754 18.0174 45.1749 18.0007 45.1747C17.8577 44.8537 17.6988 44.5859 17.522 44.3883C17.5547 44.39 17.5876 44.3914 17.6205 44.3928C17.7785 44.6003 17.9217 44.8662 18.051 45.1757Z" fill="#AB5244"/>
<path d="M9.40787 49.9253C9.38926 49.3022 9.66559 48.9148 10.0371 48.6744C10.0257 48.7181 10.0161 48.7635 10.0087 48.8108C9.67514 49.0363 9.42481 49.3857 9.40787 49.9253Z" fill="#59A3D5"/>
<path d="M16.8096 53.6083C16.617 53.6083 16.4199 53.5844 16.2219 53.5341C13.426 52.823 9.68644 51.6263 9.44471 50.2669C9.42323 50.1459 9.4113 50.0322 9.40796 49.9254C9.4249 49.3857 9.67523 49.0364 10.0088 48.8109C9.98258 48.9808 9.98473 49.1751 10.0243 49.3978C10.2396 50.609 13.5714 51.6752 16.0622 52.3085C16.2388 52.3534 16.414 52.3747 16.5855 52.3747C17.7555 52.3744 18.7454 51.3859 18.6514 50.1587C18.549 48.8234 18.3684 47.2411 18.0505 45.9791C18.4843 46.866 18.7788 48.2311 18.9785 49.6453C18.7208 47.3593 18.2424 44.9497 17.3546 44.2272C17.4122 44.274 17.468 44.3279 17.5222 44.3884C17.699 44.586 17.8579 44.8538 18.0009 45.1748C18.0789 45.3495 18.1519 45.54 18.2206 45.7435C18.2218 45.7468 18.223 45.7501 18.224 45.7536C18.6342 46.974 18.8852 48.6579 19.0384 50.2109C19.0733 50.5629 19.1029 50.9077 19.1282 51.2391C19.1286 51.2443 19.1291 51.2498 19.1294 51.2552C19.132 51.2907 19.1336 51.3259 19.1344 51.3609C19.1024 52.6252 18.0457 53.6083 16.8096 53.6083Z" fill="#C38039"/>
<path d="M18.9784 49.6451C18.7786 48.2309 18.4842 46.8659 18.0503 45.979C17.8676 45.2529 17.6392 44.6329 17.3545 44.227C18.2422 44.9496 18.7207 47.3592 18.9784 49.6451Z" fill="#C3A3A6"/>
<path d="M16.323 53.2619C16.9327 53.4172 17.5586 53.2766 18.0401 52.8769C18.5215 52.4772 18.7704 51.8912 18.7226 51.2695C18.2707 45.3692 17.2324 44.5481 16.9248 44.437C16.4983 44.2826 16.1573 44.2907 15.8827 44.4613C15.3357 44.801 15.1274 45.7382 15.0933 46.0708C15.0768 46.232 14.9644 46.3679 14.8084 46.4157C14.6521 46.4629 14.4821 46.4138 14.3771 46.2897C13.9106 45.7385 13.2613 45.2943 12.4469 44.9693C12.1111 44.8353 11.7472 44.8906 11.474 45.1177C11.2005 45.3447 11.0819 45.6898 11.1563 46.0405C11.3372 46.8917 11.6653 47.6027 12.1319 48.1539C12.2371 48.278 12.2567 48.4529 12.1817 48.5971C12.1068 48.7413 11.9519 48.829 11.7885 48.8141C11.4527 48.79 10.4843 48.8288 10.0515 49.3029C9.83383 49.5412 9.7663 49.8724 9.84505 50.3153C9.90184 50.6344 10.5366 51.7903 16.323 53.2619ZM16.8148 54.1299C16.5845 54.1299 16.3521 54.101 16.1208 54.0424V54.0422C14.3282 53.5865 12.8461 53.1118 11.7152 52.632C10.0529 51.9264 9.17903 51.2142 9.0442 50.4548C8.92035 49.7594 9.05708 49.189 9.45059 48.76C9.88299 48.2882 10.5404 48.1069 11.0585 48.0402C10.7409 47.5096 10.507 46.8955 10.3605 46.2065C10.223 45.5595 10.444 44.9218 10.9513 44.5003C11.4589 44.0789 12.1314 43.9749 12.7509 44.2221C13.4102 44.4852 13.9793 44.8204 14.4516 45.2229C14.6084 44.7294 14.9033 44.12 15.4479 43.7804C15.9431 43.4717 16.5339 43.4381 17.2037 43.6801C17.9349 43.9444 18.4902 44.9211 18.9014 46.6657C19.1808 47.8523 19.3937 49.3809 19.5337 51.2086C19.6013 52.0926 19.2474 52.9256 18.5625 53.4943C18.0604 53.9112 17.4476 54.1299 16.8148 54.1299Z" fill="#AB5244"/>
<path d="M12.042 48.075C12.2074 48.1804 12.3618 48.3031 12.5135 48.43C12.6653 48.5562 12.8104 48.6929 12.956 48.829C13.2464 49.1023 13.5308 49.3847 13.8012 49.6882C13.4115 49.5665 13.0354 49.4237 12.6656 49.2717C12.4809 49.1952 12.2959 49.1193 12.1177 49.033C11.9392 48.9472 11.7633 48.8574 11.5986 48.7503L12.042 48.075Z" fill="#AB5244"/>
<path d="M15.0633 45.8736C15.1408 46.0528 15.1993 46.2402 15.2537 46.4293C15.3081 46.6182 15.3513 46.8118 15.3952 47.0051C15.4816 47.3925 15.558 47.7842 15.6107 48.1858C15.3563 47.8691 15.1253 47.5422 14.9044 47.2112C14.7946 47.0455 14.6841 46.8801 14.5848 46.7099C14.4856 46.5397 14.3903 46.3679 14.3145 46.188L15.0633 45.8736Z" fill="#AB5244"/>
<path d="M42.1618 53.6522C40.6128 54.046 39.1347 52.8186 39.2557 51.2391C39.4741 48.3883 40.0103 44.5319 41.3194 44.0586C43.4256 43.2973 43.695 46.0309 43.695 46.0309C44.287 45.3315 45.0664 44.8824 45.7849 44.5957C46.8018 44.1901 47.851 45.0613 47.6253 46.1236C47.4659 46.8745 47.1556 47.7132 46.5636 48.4126C46.5636 48.4126 49.3281 48.198 48.9392 50.3851C48.6974 51.7445 44.9578 52.9412 42.1618 53.6522Z" fill="#FEB71F"/>
<path d="M41.1057 44.1699C41.106 44.1697 41.1064 44.1694 41.1067 44.1692C41.1064 44.1694 41.106 44.1697 41.1057 44.1699ZM41.1088 44.1678C41.1093 44.1676 41.1095 44.1673 41.1098 44.1671C41.1095 44.1673 41.1093 44.1676 41.1088 44.1678ZM41.1174 44.1619C41.1176 44.1616 41.1179 44.1616 41.1181 44.1614C41.1179 44.1616 41.1176 44.1619 41.1174 44.1619ZM41.1203 44.16C41.1207 44.1598 41.121 44.1595 41.1212 44.1593C41.121 44.1595 41.1207 44.1598 41.1203 44.16ZM41.1236 44.1579C41.1238 44.1576 41.1241 44.1574 41.1246 44.1572C41.1241 44.1574 41.1238 44.1576 41.1236 44.1579ZM41.1267 44.1557C41.127 44.1555 41.1272 44.1555 41.1277 44.1553C41.1272 44.1555 41.127 44.1555 41.1267 44.1557ZM41.1324 44.152C41.1327 44.152 41.1327 44.152 41.1329 44.1517C41.1327 44.152 41.1327 44.152 41.1324 44.152ZM41.1348 44.1505C41.1353 44.1503 41.1358 44.1501 41.136 44.1498C41.1358 44.1501 41.1353 44.1503 41.1348 44.1505ZM41.1379 44.1484C41.1384 44.1482 41.1391 44.1479 41.1396 44.1475C41.1391 44.1479 41.1384 44.1482 41.1379 44.1484ZM41.1413 44.1465C41.1417 44.146 41.1422 44.1458 41.1427 44.1456C41.1422 44.1458 41.1417 44.146 41.1413 44.1465ZM41.1446 44.1444C41.1449 44.1442 41.1453 44.1439 41.1456 44.1437C41.1453 44.1439 41.1451 44.1442 41.1446 44.1444ZM41.1496 44.1413C41.1501 44.1411 41.1506 44.1406 41.1508 44.1404C41.1506 44.1406 41.1501 44.1411 41.1496 44.1413ZM41.1527 44.1394C41.1532 44.139 41.1537 44.1387 41.1542 44.1385C41.1537 44.1387 41.1532 44.139 41.1527 44.1394ZM41.1561 44.1373C41.1565 44.1371 41.157 44.1368 41.1575 44.1364C41.157 44.1368 41.1565 44.1371 41.1561 44.1373ZM41.1594 44.1354C41.1599 44.1349 41.1604 44.1347 41.1608 44.1345C41.1604 44.1347 41.1599 44.1349 41.1594 44.1354ZM41.163 44.133C41.1639 44.1326 41.1649 44.1321 41.1656 44.1316C41.1649 44.1321 41.1639 44.1326 41.163 44.133ZM41.1673 44.1304C41.168 44.1302 41.1685 44.13 41.1692 44.1295C41.1685 44.13 41.168 44.1302 41.1673 44.1304ZM41.1709 44.1286C41.1713 44.1283 41.1718 44.1281 41.1723 44.1276C41.1718 44.1278 41.1713 44.1283 41.1709 44.1286ZM41.1742 44.1267C41.1747 44.1262 41.1752 44.126 41.1759 44.1257C41.1752 44.126 41.1747 44.1262 41.1742 44.1267ZM41.1775 44.1248C41.1783 44.1243 41.179 44.1238 41.1795 44.1236C41.179 44.1238 41.1783 44.1243 41.1775 44.1248ZM41.1816 44.1224C41.1823 44.1219 41.1833 44.1215 41.184 44.121C41.1833 44.1215 41.1823 44.1219 41.1816 44.1224ZM41.1854 44.1203C41.1861 44.1198 41.1868 44.1193 41.1873 44.1191C41.1868 44.1193 41.1861 44.1198 41.1854 44.1203ZM41.189 44.1182C41.1895 44.1179 41.1902 44.1174 41.1907 44.1172C41.1902 44.1174 41.1895 44.1179 41.189 44.1182ZM41.1923 44.1163C41.1931 44.116 41.1935 44.1156 41.1942 44.1153C41.1938 44.1156 41.1931 44.116 41.1923 44.1163ZM41.1957 44.1144C41.1969 44.1139 41.1978 44.1134 41.199 44.1127C41.1978 44.1134 41.1969 44.1139 41.1957 44.1144ZM41.2 44.1122C41.2007 44.1118 41.2016 44.1113 41.2024 44.1108C41.2016 44.1113 41.2007 44.1118 41.2 44.1122ZM41.2038 44.1101C41.2045 44.1099 41.2052 44.1094 41.2057 44.1092C41.2052 44.1094 41.2045 44.1099 41.2038 44.1101ZM41.2074 44.1082C41.2078 44.108 41.2086 44.1075 41.2093 44.1073C41.2086 44.1078 41.2078 44.108 41.2074 44.1082ZM41.2107 44.1066C41.2114 44.1061 41.2124 44.1056 41.2131 44.1052C41.2124 44.1056 41.2114 44.1061 41.2107 44.1066ZM41.2141 44.1047C41.2152 44.1042 41.2162 44.1037 41.2174 44.103C41.2162 44.1037 41.2152 44.1042 41.2141 44.1047ZM41.2188 44.1023C41.2195 44.1021 41.22 44.1016 41.2207 44.1014C41.22 44.1016 41.2195 44.1021 41.2188 44.1023ZM41.2224 44.1007C41.2229 44.1002 41.2236 44.1 41.2243 44.0997C41.2236 44.1 41.2229 44.1002 41.2224 44.1007ZM41.2257 44.0988C41.2265 44.0985 41.2272 44.0981 41.2279 44.0978C41.2272 44.0981 41.2265 44.0985 41.2257 44.0988ZM41.2291 44.0971C41.23 44.0966 41.231 44.0962 41.232 44.0957C41.231 44.0962 41.23 44.0966 41.2291 44.0971ZM41.2334 44.0952C41.2341 44.0948 41.2351 44.0943 41.236 44.0938C41.2351 44.0943 41.2343 44.0948 41.2334 44.0952ZM41.2372 44.0931C41.2379 44.0929 41.2386 44.0926 41.2393 44.0922C41.2386 44.0926 41.2379 44.0929 41.2372 44.0931ZM41.2408 44.0914C41.2415 44.0912 41.2422 44.0907 41.2429 44.0905C41.2422 44.0907 41.2415 44.0912 41.2408 44.0914ZM41.2444 44.0898C41.2451 44.0896 41.2458 44.0891 41.2465 44.0888C41.2458 44.0891 41.2451 44.0896 41.2444 44.0898ZM41.2477 44.0881C41.2489 44.0877 41.2498 44.0872 41.251 44.0867C41.2501 44.0872 41.2489 44.0877 41.2477 44.0881ZM41.252 44.0862C41.253 44.0858 41.2537 44.0855 41.2546 44.0851C41.2537 44.0855 41.253 44.0858 41.252 44.0862ZM41.2558 44.0844C41.2565 44.0841 41.2575 44.0839 41.2582 44.0834C41.2575 44.0839 41.2565 44.0841 41.2558 44.0844ZM41.2594 44.0829C41.2601 44.0825 41.2608 44.0822 41.2615 44.082C41.2608 44.0822 41.2601 44.0825 41.2594 44.0829ZM41.263 44.0813C41.2639 44.0808 41.2649 44.0806 41.2656 44.0801C41.2649 44.0806 41.2639 44.0808 41.263 44.0813ZM41.2663 44.0799C41.2675 44.0794 41.2687 44.0787 41.2699 44.0782C41.2687 44.0789 41.2675 44.0792 41.2663 44.0799ZM41.2711 44.0777C41.2718 44.0775 41.2725 44.077 41.2732 44.0768C41.2725 44.077 41.2718 44.0775 41.2711 44.0777ZM41.2747 44.0763C41.2754 44.0758 41.2761 44.0756 41.2768 44.0754C41.2761 44.0756 41.2754 44.0758 41.2747 44.0763ZM41.2782 44.0747C41.279 44.0744 41.2797 44.074 41.2806 44.0737C41.2797 44.074 41.279 44.0744 41.2782 44.0747ZM41.2818 44.0732C41.2828 44.0728 41.284 44.0723 41.2852 44.0718C41.284 44.0723 41.283 44.0728 41.2818 44.0732ZM41.2859 44.0716C41.2868 44.0711 41.2878 44.0706 41.2887 44.0704C41.2878 44.0709 41.2868 44.0711 41.2859 44.0716ZM41.2897 44.0699C41.2907 44.0697 41.2914 44.0692 41.2923 44.069C41.2914 44.0692 41.2907 44.0697 41.2897 44.0699ZM41.2935 44.0685C41.2945 44.068 41.2949 44.0678 41.2959 44.0676C41.2952 44.0678 41.2942 44.068 41.2935 44.0685ZM41.2971 44.0671C41.298 44.0666 41.2988 44.0664 41.2997 44.0659C41.2988 44.0664 41.298 44.0666 41.2971 44.0671ZM41.3007 44.0657C41.3019 44.0652 41.3028 44.0647 41.304 44.0643C41.3031 44.0647 41.3016 44.0652 41.3007 44.0657ZM41.305 44.064C41.3059 44.0636 41.3066 44.0633 41.3076 44.0628C41.3066 44.0633 41.3059 44.0636 41.305 44.064ZM41.309 44.0624C41.3097 44.0621 41.3105 44.0619 41.3112 44.0617C41.3105 44.0619 41.3097 44.0621 41.309 44.0624ZM41.3126 44.0612C41.3133 44.0607 41.314 44.0605 41.315 44.0602C41.314 44.0605 41.3133 44.0607 41.3126 44.0612ZM41.3159 44.0598C41.3171 44.0593 41.3183 44.0591 41.3195 44.0586C41.3183 44.0591 41.3174 44.0593 41.3159 44.0598Z" fill="#CDCED8"/>
<path d="M41.0562 44.2058C41.0564 44.2056 41.0564 44.2056 41.0564 44.2056C41.0564 44.2056 41.0564 44.2056 41.0562 44.2058ZM41.0705 44.1949C41.0707 44.1947 41.0709 44.1947 41.0709 44.1945C41.0709 44.1947 41.0707 44.1947 41.0705 44.1949ZM41.0736 44.1926C41.0738 44.1926 41.0738 44.1923 41.074 44.1923C41.0738 44.1923 41.0738 44.1926 41.0736 44.1926ZM41.0848 44.1843C41.085 44.1843 41.0853 44.1841 41.0857 44.1838C41.0855 44.1841 41.085 44.1843 41.0848 44.1843ZM41.0879 44.1822C41.0881 44.1819 41.0886 44.1817 41.0888 44.1817C41.0886 44.1817 41.0881 44.1819 41.0879 44.1822ZM41.091 44.18C41.0912 44.1798 41.0917 44.1796 41.0919 44.1793C41.0917 44.1796 41.0912 44.1798 41.091 44.18ZM41.1024 44.172C41.1027 44.1718 41.1032 44.1715 41.1034 44.1713C41.1032 44.1715 41.1027 44.1718 41.1024 44.172Z" fill="white"/>
<path d="M43.5741 46.9877C43.5741 46.9877 43.3665 44.8814 41.8915 44.8814C41.6861 44.8814 41.456 44.9223 41.1985 45.0154C40.8613 45.1371 40.5755 45.4834 40.3333 45.9791C40.516 45.2529 40.7442 44.6329 41.0291 44.2271C41.0379 44.2198 41.047 44.2127 41.0561 44.2058C41.0563 44.2056 41.0563 44.2056 41.0563 44.2056C41.0573 44.2049 41.0582 44.2042 41.0592 44.2035C41.063 44.2006 41.0668 44.1978 41.0704 44.1949C41.0706 44.1947 41.0709 44.1947 41.0709 44.1945C41.0718 44.194 41.0725 44.1933 41.0735 44.1926C41.0737 44.1926 41.0737 44.1923 41.074 44.1923C41.0775 44.1895 41.0811 44.1869 41.0847 44.1843C41.0849 44.1843 41.0854 44.1841 41.0857 44.1838C41.0864 44.1834 41.0871 44.1827 41.0878 44.1822C41.088 44.1819 41.0885 44.1817 41.0888 44.1817C41.0895 44.181 41.0902 44.1805 41.0909 44.18C41.0911 44.1798 41.0916 44.1796 41.0919 44.1793C41.0926 44.1789 41.0933 44.1782 41.0943 44.1777C41.0969 44.1758 41.0997 44.1739 41.1024 44.172C41.1026 44.1718 41.1031 44.1715 41.1033 44.1713C41.104 44.1708 41.1047 44.1704 41.1055 44.1699C41.1057 44.1696 41.1062 44.1694 41.1064 44.1692C41.1071 44.1687 41.1079 44.1682 41.1086 44.1678C41.109 44.1675 41.1093 44.1673 41.1095 44.167C41.1121 44.1654 41.1148 44.1635 41.1172 44.1618C41.1174 44.1618 41.1176 44.1616 41.1179 44.1614C41.1186 44.1609 41.1193 44.1604 41.12 44.16C41.1205 44.1597 41.1207 44.1595 41.121 44.1592C41.1217 44.1588 41.1226 44.1583 41.1234 44.1578C41.1236 44.1576 41.1238 44.1574 41.1243 44.1571C41.125 44.1566 41.1258 44.1562 41.1265 44.1557C41.1267 44.1555 41.1269 44.1555 41.1274 44.1552C41.1288 44.154 41.1308 44.1531 41.1322 44.1519C41.1324 44.1519 41.1324 44.1519 41.1327 44.1517C41.1331 44.1514 41.1339 44.151 41.1346 44.1505C41.1351 44.1503 41.1355 44.15 41.1358 44.1498C41.1365 44.1493 41.1372 44.1488 41.1377 44.1484C41.1382 44.1481 41.1389 44.1479 41.1393 44.1474C41.1398 44.1472 41.1403 44.1467 41.141 44.1465C41.1415 44.146 41.142 44.1458 41.1425 44.1455C41.1432 44.1451 41.1436 44.1446 41.1444 44.1444C41.1448 44.1441 41.1451 44.1439 41.1453 44.1436C41.1467 44.1427 41.1479 44.142 41.1494 44.1413C41.1499 44.141 41.1503 44.1406 41.1506 44.1403C41.1513 44.1401 41.1518 44.1396 41.1525 44.1394C41.153 44.1389 41.1534 44.1387 41.1539 44.1384C41.1546 44.138 41.1551 44.1377 41.1558 44.1373C41.1563 44.137 41.1568 44.1368 41.1572 44.1363C41.1577 44.1361 41.1587 44.1356 41.1592 44.1354C41.1596 44.1349 41.1601 44.1347 41.1606 44.1344C41.1613 44.134 41.162 44.1335 41.1627 44.133C41.1637 44.1325 41.1646 44.1321 41.1654 44.1316C41.1661 44.1311 41.1666 44.1309 41.167 44.1304C41.1677 44.1302 41.1682 44.1299 41.1689 44.1295C41.1694 44.1292 41.1699 44.1288 41.1706 44.1285C41.1711 44.1283 41.1716 44.1278 41.172 44.1276C41.1728 44.1273 41.1732 44.1269 41.174 44.1266C41.1744 44.1262 41.1749 44.1259 41.1756 44.1257C41.1761 44.1252 41.1766 44.125 41.1773 44.1247C41.178 44.1243 41.1787 44.1238 41.1792 44.1236C41.1799 44.1231 41.1806 44.1226 41.1814 44.1224C41.1821 44.1219 41.183 44.1214 41.1837 44.121C41.1842 44.1207 41.1847 44.1205 41.1852 44.1202C41.1859 44.1198 41.1866 44.1193 41.1871 44.1191C41.1876 44.1188 41.1883 44.1184 41.1887 44.1181C41.1892 44.1179 41.1899 44.1174 41.1904 44.1172C41.1911 44.1169 41.1916 44.1167 41.1921 44.1162C41.1928 44.116 41.1935 44.1155 41.194 44.1153C41.1945 44.115 41.1949 44.1146 41.1954 44.1143C41.1966 44.1139 41.1976 44.1134 41.1988 44.1127C41.199 44.1124 41.1992 44.1124 41.1997 44.1122C41.2004 44.1117 41.2014 44.1113 41.2021 44.1108C41.2026 44.1106 41.2031 44.1103 41.2035 44.1101C41.2043 44.1098 41.205 44.1094 41.2055 44.1091C41.2062 44.1087 41.2064 44.1087 41.2071 44.1082C41.2076 44.108 41.2083 44.1077 41.209 44.1072C41.2095 44.107 41.21 44.1068 41.2105 44.1065C41.2112 44.1061 41.2121 44.1056 41.2128 44.1051C41.2131 44.1051 41.2136 44.1049 41.2138 44.1046C41.215 44.1042 41.216 44.1037 41.2171 44.103C41.2176 44.1028 41.2181 44.1025 41.2186 44.1023C41.2193 44.102 41.2198 44.1016 41.2205 44.1013C41.221 44.1011 41.2214 44.1009 41.2222 44.1006C41.2226 44.1002 41.2233 44.0999 41.2241 44.0997C41.2245 44.0992 41.225 44.099 41.2255 44.0987C41.2262 44.0985 41.2269 44.098 41.2276 44.0978C41.2281 44.0976 41.2284 44.0973 41.2288 44.0971C41.2298 44.0966 41.2307 44.0961 41.2317 44.0957C41.2322 44.0954 41.2327 44.0952 41.2331 44.0952C41.2341 44.0947 41.2348 44.0942 41.2358 44.0938C41.2362 44.0935 41.2365 44.0933 41.2369 44.0931C41.2377 44.0928 41.2384 44.0926 41.2391 44.0921C41.2396 44.0919 41.2401 44.0916 41.2405 44.0914C41.2412 44.0912 41.242 44.0907 41.2427 44.0905C41.2432 44.0902 41.2436 44.09 41.2441 44.0898C41.2448 44.0895 41.2455 44.089 41.2463 44.0888C41.2467 44.0886 41.2472 44.0883 41.2475 44.0881C41.2486 44.0876 41.2498 44.0872 41.2508 44.0867C41.2513 44.0864 41.2515 44.0862 41.2517 44.0862C41.2527 44.0857 41.2534 44.0855 41.2544 44.085C41.2548 44.0848 41.2551 44.0846 41.2556 44.0843C41.2563 44.0841 41.2572 44.0838 41.258 44.0834C41.2582 44.0831 41.2587 44.0831 41.2591 44.0829C41.2599 44.0824 41.2606 44.0822 41.2613 44.082C41.2618 44.0817 41.2622 44.0815 41.2627 44.0812C41.2637 44.0808 41.2646 44.0805 41.2653 44.0801C41.2656 44.0798 41.2658 44.0798 41.2661 44.0798C41.2673 44.0791 41.2685 44.0789 41.2696 44.0782C41.2699 44.0782 41.2704 44.0779 41.2708 44.0777C41.2716 44.0775 41.2723 44.077 41.273 44.0768C41.2735 44.0765 41.2739 44.0763 41.2744 44.0763C41.2751 44.0758 41.2758 44.0756 41.2766 44.0753C41.277 44.0751 41.2775 44.0749 41.278 44.0746C41.2787 44.0744 41.2794 44.0739 41.2804 44.0737C41.2806 44.0734 41.2811 44.0734 41.2816 44.0732C41.2828 44.0727 41.2837 44.0723 41.2849 44.0718C41.2852 44.0716 41.2854 44.0716 41.2856 44.0716C41.2866 44.0711 41.2875 44.0708 41.2885 44.0704C41.2887 44.0701 41.2892 44.0701 41.2894 44.0699C41.2904 44.0697 41.2911 44.0692 41.2921 44.069C41.2923 44.0687 41.2928 44.0685 41.2933 44.0685C41.294 44.068 41.2949 44.0678 41.2957 44.0675C41.2959 44.0673 41.2964 44.0671 41.2968 44.0671C41.2978 44.0666 41.2985 44.0664 41.2995 44.0659C41.2997 44.0659 41.3002 44.0656 41.3004 44.0656C41.3014 44.0652 41.3028 44.0647 41.3038 44.0642C41.3042 44.0642 41.3045 44.064 41.3047 44.064C41.3057 44.0635 41.3064 44.0633 41.3073 44.0628C41.3078 44.0628 41.3083 44.0626 41.3088 44.0623C41.3095 44.0621 41.3102 44.0619 41.3109 44.0616C41.3114 44.0614 41.3119 44.0612 41.3124 44.0612C41.3131 44.0607 41.3138 44.0604 41.3147 44.0602C41.315 44.06 41.3155 44.06 41.3157 44.0597C41.3171 44.0593 41.3181 44.059 41.3193 44.0586C41.5768 43.9654 41.8068 43.9245 42.0123 43.9245C43.4875 43.9245 43.6949 46.0308 43.6949 46.0308C44.2869 45.3314 45.0663 44.8823 45.7848 44.5956C45.959 44.5261 46.1342 44.4942 46.3038 44.4942C47.0324 44.4942 47.6573 45.0856 47.6562 45.8354C47.6559 45.9292 47.6461 46.0256 47.6251 46.1235C47.5948 46.2665 47.5569 46.4133 47.5146 46.561C47.4027 45.9245 46.8343 45.451 46.1828 45.451C46.0134 45.451 45.8383 45.4829 45.6641 45.5524C44.9455 45.8391 44.1662 46.2882 43.5741 46.9877Z" fill="#FFE9BB"/>
<path d="M48.976 49.9253C48.959 49.3857 48.7087 49.0363 48.3751 48.8108C48.3677 48.7635 48.3581 48.7181 48.3467 48.6744C48.7182 48.9148 48.9946 49.3022 48.976 49.9253Z" fill="#59A3D5"/>
<path d="M39.2496 51.3608C39.2486 51.327 39.2486 51.2928 39.2491 51.2583C39.251 51.2573 39.2527 51.2561 39.2546 51.2552C39.252 51.2906 39.2503 51.3259 39.2496 51.3608Z" fill="#4F72B8"/>
<path d="M41.1519 44.0699C41.1619 44.0489 41.1717 44.0279 41.1812 44.0068C41.2017 43.9953 41.222 43.9846 41.2428 43.9747C41.212 44.0042 41.1817 44.0359 41.1519 44.0699Z" fill="#4F407C"/>
<path d="M40.114 45.778C40.3884 44.9138 40.7376 44.2586 41.1812 44.0068C41.1716 44.0279 41.1618 44.0489 41.1518 44.0699C41.1098 44.1179 41.069 44.1704 41.0292 44.2271C40.6815 44.5101 40.3966 45.0516 40.1632 45.7434C40.1467 45.755 40.1305 45.7664 40.114 45.778Z" fill="#C3B2D5"/>
<path d="M39.3333 50.2186C39.4769 48.7167 39.7117 47.0768 40.0935 45.8432C40.1157 45.8134 40.1379 45.7834 40.1599 45.7536C39.7497 46.974 39.4986 48.6579 39.3454 50.2111C39.3411 50.2137 39.3373 50.216 39.3333 50.2186Z" fill="#482D7A"/>
<path d="M40.0935 45.8431C40.1004 45.8214 40.1071 45.7996 40.114 45.7779C40.1305 45.7663 40.1467 45.755 40.1632 45.7434C40.162 45.7467 40.1608 45.7502 40.1598 45.7536C40.1379 45.7833 40.1157 45.8134 40.0935 45.8431Z" fill="#997CB8"/>
<path d="M39.249 51.2583C39.25 51.2129 39.2521 51.1671 39.2557 51.121C39.2779 50.8291 39.3037 50.527 39.3333 50.2187C39.3373 50.2161 39.3411 50.2138 39.3454 50.2112C39.3106 50.5629 39.281 50.9078 39.2557 51.2392C39.2552 51.2446 39.2548 51.2498 39.2545 51.2552C39.2526 51.2562 39.2509 51.2574 39.249 51.2583Z" fill="#AB5244"/>
<path d="M41.5743 53.6083C40.3382 53.6083 39.2815 52.6252 39.2495 51.3609C39.2502 51.3259 39.2519 51.2907 39.2545 51.2552C39.2548 51.2498 39.2552 51.2446 39.2557 51.2391C39.281 50.9077 39.3106 50.5629 39.3454 50.2111C39.4986 48.6579 39.7497 46.974 40.1599 45.7536C40.1608 45.7503 40.162 45.7468 40.1632 45.7435C40.3966 45.0516 40.6815 44.5101 41.0292 44.2272C40.1415 44.9497 39.6631 47.3593 39.4053 49.6453C39.6051 48.2311 39.8995 46.866 40.3334 45.9791C40.0155 47.2411 39.8349 48.8234 39.7325 50.1587C39.6385 51.3859 40.6283 52.3747 41.7983 52.3747C41.9699 52.3747 42.1451 52.3534 42.3217 52.3085C44.8125 51.6752 48.1443 50.609 48.3595 49.3978C48.3991 49.1751 48.4013 48.9808 48.375 48.8109C48.7087 49.0364 48.959 49.3857 48.9759 49.9254C48.9726 50.0322 48.9606 50.1459 48.9392 50.2669C48.6974 51.6263 44.9578 52.823 42.1618 53.5341C41.9637 53.5844 41.7668 53.6083 41.5743 53.6083Z" fill="#C38039"/>
<path d="M39.4053 49.6451C39.663 47.3592 40.1415 44.9496 41.0292 44.227C40.7442 44.6329 40.5161 45.2529 40.3333 45.979C39.8995 46.8659 39.605 48.2309 39.4053 49.6451Z" fill="#C3A3A6"/>
<path d="M42.0109 44.3271C41.8448 44.3271 41.6615 44.3637 41.4589 44.437C41.1513 44.5481 40.113 45.3692 39.6611 51.2695C39.6133 51.8912 39.8622 52.4772 40.3436 52.8769C40.8251 53.2766 41.451 53.4172 42.0608 53.2619C47.8471 51.7903 48.4819 50.6344 48.5387 50.3153C48.6174 49.8724 48.5499 49.5412 48.3322 49.3029C47.8994 48.8288 46.931 48.7891 46.5945 48.8144C46.4306 48.8248 46.2767 48.7404 46.202 48.5964C46.1275 48.4522 46.1468 48.278 46.2518 48.1539C46.7184 47.6027 47.0465 46.8917 47.2274 46.0405C47.3018 45.6898 47.1832 45.3447 46.9098 45.1177C46.6365 44.8908 46.2728 44.8353 45.9369 44.9693C45.1226 45.2943 44.4731 45.7385 44.0066 46.2897C43.9013 46.4138 43.7312 46.4636 43.5746 46.4157C43.4183 46.3677 43.3062 46.2315 43.2902 46.0701C43.2563 45.7382 43.048 44.801 42.501 44.4613C42.3567 44.3718 42.1944 44.3271 42.0109 44.3271ZM41.5689 54.1299C40.9361 54.1299 40.3235 53.9115 39.8212 53.4943C39.1363 52.9256 38.7824 52.0926 38.85 51.2086C38.99 49.3809 39.2029 47.8523 39.4823 46.6657C39.8935 44.9211 40.4488 43.9444 41.18 43.6801C41.8498 43.4381 42.4407 43.4717 42.9358 43.7804C43.4804 44.12 43.7753 44.7294 43.9321 45.2229C44.4044 44.8204 44.9737 44.4852 45.6331 44.2221C46.2521 43.9746 46.9248 44.0789 47.4324 44.5003C47.9397 44.9218 48.1607 45.5595 48.0232 46.2065C47.8767 46.8955 47.6428 47.5096 47.3252 48.0402C47.8433 48.1069 48.5007 48.2882 48.9331 48.76C49.3266 49.189 49.4634 49.7594 49.3395 50.4548C49.2047 51.2142 48.3308 51.9264 46.6685 52.632C45.5376 53.1118 44.0555 53.5865 42.2629 54.0422V54.0424C42.0319 54.101 41.799 54.1299 41.5689 54.1299Z" fill="#AB5244"/>
<path d="M46.7851 48.7503C46.6204 48.8574 46.4446 48.9472 46.2661 49.033C46.0878 49.1193 45.9029 49.1952 45.7182 49.2717C45.3483 49.4237 44.9722 49.5665 44.5825 49.6882C44.8529 49.3847 45.1373 49.1023 45.4278 48.829C45.5733 48.6929 45.7184 48.5562 45.8702 48.43C46.0219 48.3031 46.1763 48.1804 46.3417 48.075L46.7851 48.7503Z" fill="#AB5244"/>
<path d="M44.0694 46.188C43.9936 46.3679 43.8983 46.5397 43.7991 46.7099C43.6998 46.8801 43.5893 47.0455 43.4795 47.2112C43.2586 47.5422 43.0276 47.8691 42.7732 48.1858C42.8259 47.7842 42.9023 47.3925 42.9887 47.0051C43.0326 46.8118 43.0758 46.6182 43.1302 46.4293C43.1846 46.2402 43.2431 46.0528 43.3206 45.8736L44.0694 46.188Z" fill="#AB5244"/>
<path d="M14.6611 30.4668C13.9567 29.9453 12.9456 30.133 12.487 30.8764C11.4465 32.5631 10.2357 35.7085 12.8105 38.913C14.8866 41.4966 17.8846 42.9415 20.1711 43.7201C21.7184 44.247 23.2118 42.7933 22.6928 41.2564C21.7158 38.3635 19.5252 34.0669 14.6611 30.4668Z" fill="#585C7F"/>
<path d="M22.797 41.8251C22.7915 41.6572 22.7639 41.4852 22.7106 41.3121C22.7104 41.3107 22.7099 41.3093 22.7094 41.3079V41.3077C22.709 41.3062 22.7085 41.3048 22.708 41.3036V41.3034C22.7075 41.302 22.7073 41.3006 22.7068 41.2994C22.7068 41.2991 22.7068 41.2991 22.7068 41.2991C22.7059 41.2963 22.7049 41.2937 22.7042 41.2909C22.704 41.2904 22.704 41.2902 22.7037 41.2899C22.7035 41.289 22.703 41.2876 22.7028 41.2866C22.7025 41.2861 22.7025 41.2859 22.7023 41.2854C22.702 41.2845 22.7018 41.2835 22.7016 41.2826C22.7013 41.2821 22.7011 41.2817 22.7009 41.2809C22.7006 41.2802 22.7004 41.2795 22.7001 41.2786C22.6999 41.2781 22.6997 41.2774 22.6997 41.2767C22.6994 41.276 22.6992 41.2753 22.6989 41.2746C22.6987 41.2739 22.6985 41.2734 22.6982 41.2727C22.698 41.272 22.6978 41.271 22.6975 41.2703C22.6973 41.2696 22.697 41.2691 22.6968 41.2687C22.6966 41.2677 22.6963 41.267 22.6961 41.2661C22.6958 41.2656 22.6956 41.2651 22.6956 41.2646C22.6951 41.2637 22.6949 41.2627 22.6947 41.2618C22.6944 41.2613 22.6944 41.2609 22.6942 41.2604C22.6937 41.2592 22.6932 41.2578 22.6927 41.2564C22.6739 41.2001 22.6543 41.1429 22.6343 41.0857C22.6429 41.0715 22.6515 41.0573 22.6598 41.0429C22.6708 41.0746 22.6822 41.107 22.6927 41.1382C22.7715 41.3712 22.8039 41.6024 22.797 41.8251Z" fill="#2D9DD1"/>
<path d="M11.2738 34.7373C11.2709 34.2745 11.3208 33.8294 11.4072 33.407C11.4091 33.4356 11.4113 33.4644 11.4134 33.493C11.3304 33.889 11.2793 34.3052 11.2738 34.7373Z" fill="#59A3D5"/>
<path d="M20.8249 43.712C20.6118 43.712 20.3921 43.6771 20.1711 43.6019C17.8845 42.8233 14.8866 41.3783 12.8105 38.7948C11.6832 37.3917 11.2818 35.9999 11.2739 34.7372C11.2794 34.3052 11.3305 33.8889 11.4135 33.493C11.5028 34.6387 11.9304 35.8747 12.9315 37.1203C15.0073 39.7039 18.0053 41.1488 20.2918 41.9274C20.5128 42.0026 20.7326 42.0376 20.9454 42.0376C21.3972 42.0376 21.8181 41.8806 22.1544 41.6199C22.188 41.7048 22.2207 41.7889 22.2524 41.8716C22.4025 42.2643 22.4166 42.6564 22.3288 43.014C21.9642 43.439 21.4213 43.712 20.8249 43.712ZM22.7968 41.8265C22.7917 41.6582 22.7641 41.4859 22.7106 41.3122C22.7638 41.4852 22.7915 41.6573 22.797 41.8251C22.7968 41.8256 22.7968 41.826 22.7968 41.8265ZM22.7106 41.3122C22.7104 41.3107 22.7099 41.3093 22.7094 41.3079C22.7099 41.3093 22.7104 41.3107 22.7106 41.3122ZM22.7094 41.3077C22.7089 41.3062 22.7085 41.3051 22.708 41.3036C22.7085 41.3048 22.7089 41.3062 22.7094 41.3077ZM22.708 41.3034C22.7075 41.302 22.7073 41.3006 22.7068 41.2994C22.7073 41.3006 22.7075 41.302 22.708 41.3034ZM22.7068 41.2992C22.7058 41.2963 22.7049 41.2937 22.7042 41.2909C22.7049 41.2937 22.7058 41.2963 22.7068 41.2992ZM22.7037 41.2899C22.7034 41.2888 22.703 41.2878 22.7027 41.2866C22.703 41.2876 22.7034 41.289 22.7037 41.2899ZM22.7023 41.2854C22.702 41.2845 22.7018 41.2836 22.7015 41.2826C22.7018 41.2836 22.702 41.2845 22.7023 41.2854ZM22.7008 41.281C22.7006 41.2802 22.7003 41.2793 22.7001 41.2786C22.7003 41.2795 22.7006 41.2802 22.7008 41.281ZM22.6996 41.2767C22.6994 41.276 22.6992 41.2753 22.6989 41.2746C22.6992 41.2753 22.6994 41.276 22.6996 41.2767ZM22.6982 41.2727C22.698 41.272 22.6977 41.271 22.6975 41.2703C22.6977 41.271 22.698 41.272 22.6982 41.2727ZM22.6968 41.2687C22.6965 41.2677 22.6963 41.267 22.6961 41.2661C22.6963 41.267 22.6965 41.2677 22.6968 41.2687ZM22.6956 41.2646C22.6951 41.2637 22.6949 41.2628 22.6946 41.2618C22.6949 41.2628 22.6951 41.2637 22.6956 41.2646ZM22.6941 41.2604C22.6937 41.2592 22.6932 41.2578 22.6927 41.2564C22.6739 41.2001 22.6543 41.1429 22.6342 41.0857C22.6543 41.1429 22.6739 41.2001 22.6927 41.2564C22.6932 41.2578 22.6937 41.2592 22.6941 41.2604Z" fill="#4F407C"/>
<path d="M18.9808 34.5742C18.468 33.9429 17.8967 33.3099 17.261 32.6842C17.8967 33.3099 18.468 33.9429 18.9808 34.5742Z" fill="#E7E0EE"/>
<path d="M17.261 32.6842C16.4929 31.9288 15.63 31.1837 14.6611 30.4668C15.63 31.1837 16.4929 31.9288 17.261 32.6842Z" fill="#B099C8"/>
<path d="M22.613 41.0248C22.1293 39.6484 21.3759 37.9813 20.2069 36.2342C21.3759 37.9813 22.1293 39.6484 22.613 41.0248ZM19.764 35.5967C19.6652 35.4599 19.564 35.3226 19.46 35.185C19.564 35.3226 19.6652 35.4599 19.764 35.5965V35.5967Z" fill="#A9F3FD"/>
<path d="M20.2071 36.2343C20.0656 36.0225 19.9181 35.8102 19.7642 35.5968V35.5965C19.9181 35.8102 20.0656 36.0225 20.2071 36.2343Z" fill="#CBF8FD"/>
<path d="M19.4601 35.1849C19.4072 35.115 19.353 35.0445 19.2986 34.9743V34.9741C19.353 35.0443 19.4072 35.115 19.4601 35.1849ZM19.1232 34.751C19.0762 34.6919 19.0292 34.6332 18.981 34.5742C19.0292 34.6332 19.0762 34.6919 19.1232 34.751Z" fill="#B099C8"/>
<path d="M19.2984 34.9744C19.2407 34.8999 19.1825 34.8255 19.123 34.751C19.1825 34.8255 19.2407 34.8999 19.2984 34.9741V34.9744Z" fill="#B099C8"/>
<path d="M22.2768 43.1895C22.2969 43.132 22.3143 43.0734 22.3289 43.0141C22.6078 42.6891 22.7825 42.2752 22.7968 41.8265C22.8126 42.3477 22.6109 42.829 22.2768 43.1895ZM22.1544 41.6199C21.0233 38.775 18.6589 34.7113 13.8018 31.4007C13.5419 31.2236 13.2465 31.1395 12.9547 31.1395C12.7015 31.1395 12.4509 31.2028 12.2285 31.3231C12.3144 31.1652 12.4013 31.0154 12.487 30.8764C12.7695 30.4181 13.2623 30.1711 13.7636 30.1711C14.0755 30.1711 14.391 30.2668 14.6611 30.4668C15.63 31.1837 16.4929 31.9287 17.261 32.6842C17.8967 33.3098 18.468 33.9428 18.9808 34.5742C19.0291 34.6333 19.0761 34.6919 19.1231 34.751C19.1825 34.8254 19.2407 34.8999 19.2985 34.9744C19.3529 35.0446 19.407 35.115 19.46 35.185C19.5641 35.3225 19.6652 35.4599 19.764 35.5967C19.918 35.8102 20.0654 36.0224 20.2069 36.2342C21.376 37.9812 22.1294 39.6484 22.6131 41.0248C22.6202 41.0451 22.6271 41.0654 22.6343 41.0857C22.5083 41.2909 22.3448 41.4722 22.1544 41.6199Z" fill="#BCBECC"/>
<path d="M22.7094 41.308V41.3077V41.308ZM22.7079 41.3037V41.3035V41.3037ZM22.7067 41.2995C22.7067 41.2992 22.7067 41.2995 22.7067 41.2992C22.7067 41.2992 22.7067 41.2992 22.7067 41.2995ZM22.7041 41.291C22.7039 41.2905 22.7039 41.2903 22.7036 41.29C22.7039 41.2903 22.7039 41.2905 22.7041 41.291ZM22.7027 41.2867C22.7024 41.2862 22.7024 41.286 22.7022 41.2855C22.7024 41.286 22.7024 41.2862 22.7027 41.2867ZM22.7015 41.2827C22.7012 41.2822 22.701 41.2815 22.7008 41.281C22.701 41.2817 22.7012 41.2822 22.7015 41.2827ZM22.7001 41.2787C22.6998 41.2782 22.6996 41.2775 22.6996 41.2768C22.6996 41.2775 22.6998 41.2782 22.7001 41.2787ZM22.6989 41.2747C22.6986 41.2739 22.6984 41.2735 22.6982 41.2728C22.6984 41.2735 22.6986 41.2739 22.6989 41.2747ZM22.6974 41.2704C22.6972 41.2699 22.697 41.2692 22.6967 41.2687C22.697 41.2692 22.6972 41.2697 22.6974 41.2704ZM22.696 41.2661C22.6958 41.2657 22.6955 41.2652 22.6955 41.2647C22.6955 41.2652 22.6958 41.2657 22.696 41.2661ZM22.6946 41.2619C22.6943 41.2614 22.6943 41.2609 22.6941 41.2605C22.6943 41.2609 22.6943 41.2614 22.6946 41.2619Z" fill="#ABD8ED"/>
<path d="M22.3287 43.014C22.4166 42.6564 22.4025 42.2643 22.2524 41.8717C22.2206 41.7889 22.1879 41.7048 22.1543 41.6199C22.3447 41.4722 22.5082 41.2909 22.6342 41.0857C22.6542 41.1429 22.6738 41.2001 22.6926 41.2564C22.6931 41.2578 22.6936 41.2592 22.6941 41.2604C22.6943 41.2609 22.6943 41.2613 22.6946 41.2618C22.6948 41.2628 22.695 41.2637 22.6955 41.2647C22.6955 41.2651 22.6958 41.2656 22.696 41.2661C22.6962 41.267 22.6965 41.2677 22.6967 41.2687C22.6969 41.2691 22.6972 41.2699 22.6974 41.2703C22.6977 41.271 22.6979 41.272 22.6981 41.2727C22.6984 41.2734 22.6986 41.2739 22.6989 41.2746C22.6991 41.2753 22.6993 41.276 22.6996 41.2767C22.6996 41.2774 22.6998 41.2781 22.7 41.2786C22.7003 41.2793 22.7005 41.2803 22.7008 41.281C22.701 41.2814 22.7012 41.2821 22.7015 41.2826C22.7017 41.2836 22.702 41.2845 22.7022 41.2855C22.7024 41.2859 22.7024 41.2862 22.7027 41.2866C22.7029 41.2878 22.7034 41.2888 22.7036 41.2899C22.7039 41.2902 22.7039 41.2904 22.7041 41.2909C22.7048 41.2937 22.7058 41.2963 22.7067 41.2992C22.7067 41.2994 22.7067 41.2992 22.7067 41.2994C22.7072 41.3006 22.7074 41.302 22.7079 41.3034V41.3037C22.7084 41.3051 22.7089 41.3063 22.7094 41.3077V41.3079C22.7098 41.3093 22.7103 41.3107 22.7105 41.3122C22.764 41.4859 22.7917 41.6582 22.7967 41.8265C22.7824 42.2751 22.6077 42.689 22.3287 43.014Z" fill="#B9B3CB"/>
<path d="M13.7615 30.5899C13.6932 30.5899 13.6248 30.5963 13.557 30.6093C13.2573 30.6665 13.0053 30.8388 12.8475 31.0945C11.7026 32.9508 10.8242 35.7685 13.1413 38.6523C15.1818 41.1916 18.1652 42.5945 20.3086 43.3242C20.8827 43.5199 21.4831 43.3835 21.9141 42.9601C22.3413 42.5406 22.4825 41.9532 22.2921 41.3892C21.3161 38.4991 19.1562 34.3163 14.4082 30.8019C14.2209 30.6634 13.993 30.5899 13.7615 30.5899ZM20.8221 44.2472C20.5589 44.2472 20.2931 44.2042 20.0339 44.116C17.7841 43.3499 14.6473 41.8709 12.48 39.1737C9.72025 35.7392 11.0738 32.3643 12.1264 30.6582C12.4056 30.2053 12.8688 29.8879 13.3971 29.7869C13.9283 29.6858 14.4814 29.8113 14.9141 30.1316C19.8371 33.7752 22.0795 38.1202 23.0937 41.1235C23.3841 41.9837 23.1602 42.9152 22.5095 43.5546C22.0492 44.0066 21.4438 44.2472 20.8221 44.2472Z" fill="#AB5244"/>
<path d="M24.185 22.8832C24.0266 24.482 22.9759 25.6882 21.8383 25.5776C20.7008 25.4669 19.9069 24.0813 20.0653 22.4825C20.2238 20.8839 21.2745 19.6775 22.4122 19.7881C23.5498 19.8987 24.3435 21.2843 24.185 22.8832Z" fill="#AB5244"/>
<path d="M23.3189 22.3386C23.2656 22.8754 22.9437 23.2836 22.6001 23.25C22.2562 23.2167 22.0207 22.7543 22.0739 22.2175C22.1271 21.6807 22.449 21.2725 22.7927 21.3061C23.1365 21.3394 23.3721 21.8018 23.3189 22.3386Z" fill="white"/>
<path d="M39.0685 21.5324C38.6903 21.6406 38.3059 21.768 37.9496 21.9155C37.5912 22.064 37.2518 22.2363 36.9357 22.4318C36.7746 22.5256 36.6285 22.6374 36.4782 22.7419L36.2672 22.9161C36.2331 22.9459 36.1954 22.9717 36.1625 23.0031L36.0651 23.0979C35.7933 23.3392 35.5769 23.6309 35.3633 23.9259L34.6911 23.1631C34.7264 23.1485 34.7483 23.1409 34.7725 23.1322C34.797 23.1232 34.8202 23.1151 34.8426 23.1083C34.8884 23.0941 34.9342 23.0797 34.9786 23.0686C35.0686 23.043 35.1581 23.0241 35.2473 23.0045C35.4258 22.9672 35.606 22.9459 35.7857 22.9312C36.1455 22.9036 36.5083 22.9234 36.8602 22.9908C37.2117 23.0591 37.5549 23.166 37.8677 23.3276C38.1851 23.4789 38.466 23.6902 38.718 23.9162C38.7934 23.9838 38.7991 24.0994 38.7309 24.1741C38.6805 24.2291 38.6039 24.2469 38.5371 24.2254L38.5161 24.2185C38.3643 24.1691 38.224 24.106 38.077 24.062C37.9288 24.0204 37.7869 23.9725 37.6384 23.9465C37.3482 23.8772 37.0545 23.8474 36.765 23.8427C36.4756 23.8339 36.1871 23.8592 35.9055 23.9103C35.8351 23.9219 35.7656 23.9394 35.696 23.9531L35.4905 24.0058C35.4232 24.0259 35.3557 24.045 35.2917 24.0687C35.2585 24.0793 35.228 24.0916 35.1975 24.1036C35.1817 24.1093 35.1669 24.115 35.1538 24.1207L35.1225 24.1339L35.1106 24.1391C34.84 24.2537 34.5267 24.1296 34.4107 23.8616C34.3393 23.6964 34.3613 23.5127 34.4503 23.3711C34.6959 22.9873 34.9681 22.6095 35.3182 22.3067C35.4802 22.1422 35.6754 22.017 35.8582 21.8791C36.0553 21.7621 36.2479 21.6373 36.4579 21.5489C36.8696 21.3572 37.3039 21.2253 37.7432 21.1601C38.1854 21.0972 38.6218 21.0861 39.0702 21.1698C39.1707 21.1887 39.237 21.2849 39.2179 21.3844C39.2046 21.4549 39.1523 21.5083 39.0874 21.527L39.0685 21.5324Z" fill="#AB5244"/>
<g filter="url(#filter0_d_205_331)">
<circle cx="29" cy="59" r="25" fill="#DD7766"/>
</g>
<path d="M32.9393 59.413H32.9483" stroke="white" stroke-width="2" stroke-linecap="round" stroke-linejoin="round"/>
<path d="M28.9303 59.413H28.9393" stroke="white" stroke-width="2" stroke-linecap="round" stroke-linejoin="round"/>
<path d="M24.9213 59.413H24.9303" stroke="white" stroke-width="2" stroke-linecap="round" stroke-linejoin="round"/>
<path fill-rule="evenodd" clip-rule="evenodd" d="M36.071 66.0698C33.0159 69.1264 28.4896 69.7867 24.7863 68.074C24.2396 67.8539 20.7011 68.8339 19.9333 68.067C19.1656 67.2991 20.1464 63.7601 19.9263 63.2134C18.2128 59.5106 18.8741 54.9826 21.9302 51.9271C25.8315 48.0243 32.1698 48.0243 36.071 51.9271C39.9803 55.8359 39.9723 62.1681 36.071 66.0698Z" stroke="white" stroke-width="1.5" stroke-linecap="round" stroke-linejoin="round"/>
<path d="M14.811 30.7141C14.1066 30.1926 13.0955 30.3803 12.6369 31.1237C11.5964 32.8105 10.3856 35.9559 12.9604 39.1603C15.0365 41.7439 18.0345 43.1888 20.321 43.9674C21.8683 44.4943 23.3617 43.0406 22.8427 41.5037C21.8657 38.6108 19.6751 34.3143 14.811 30.7141Z" fill="#585C7F"/>
<path d="M22.4267 43.4368C22.4468 43.3793 22.4642 43.3207 22.4788 43.2614C22.7577 42.9364 22.9324 42.5225 22.9467 42.0738C22.9625 42.595 22.7608 43.0763 22.4267 43.4368ZM22.3043 41.8673C21.1732 39.0223 18.8088 34.9586 13.9517 31.648C13.6918 31.4709 13.3964 31.3868 13.1046 31.3868C12.8514 31.3868 12.6008 31.4501 12.3784 31.5704C12.4643 31.4125 12.5512 31.2627 12.6369 31.1237C12.9194 30.6654 13.4122 30.4184 13.9135 30.4184C14.2254 30.4184 14.5409 30.5141 14.811 30.7141C15.7799 31.431 16.6428 32.176 17.4109 32.9315C18.0466 33.5571 18.6179 34.1901 19.1308 34.8215C19.179 34.8806 19.226 34.9392 19.273 34.9983C19.3324 35.0728 19.3906 35.1472 19.4484 35.2217C19.5028 35.2919 19.5569 35.3623 19.6099 35.4323C19.714 35.5698 19.8151 35.7072 19.9139 35.844C20.0679 36.0575 20.2153 36.2697 20.3568 36.4815C21.5259 38.2286 22.2793 39.8957 22.763 41.2721C22.7701 41.2924 22.777 41.3127 22.7842 41.3331C22.6582 41.5382 22.4947 41.7195 22.3043 41.8673Z" fill="#BCBECC"/>
<path d="M13.9114 30.8372C13.8431 30.8372 13.7747 30.8436 13.7069 30.8566C13.4072 30.9138 13.1552 31.0861 12.9974 31.3418C11.8525 33.1981 10.9741 36.0159 13.2912 38.8996C15.3317 41.4389 18.3151 42.8418 20.4585 43.5715C21.0326 43.7672 21.633 43.6308 22.064 43.2075C22.4912 42.7879 22.6324 42.2005 22.442 41.6365C21.466 38.7464 19.3061 34.5636 14.5581 31.0492C14.3708 30.9107 14.1429 30.8372 13.9114 30.8372ZM20.972 44.4945C20.7088 44.4945 20.443 44.4515 20.1838 44.3633C17.934 43.5972 14.7972 42.1183 12.6299 39.421C9.87015 35.9865 11.2237 32.6116 12.2763 30.9055C12.5555 30.4526 13.0187 30.1352 13.547 30.0342C14.0782 29.9331 14.6313 30.0586 15.064 30.3789C19.987 34.0225 22.2294 38.3675 23.2436 41.3709C23.534 42.231 23.3102 43.1626 22.6594 43.8019C22.1991 44.2539 21.5937 44.4945 20.972 44.4945Z" fill="#AB5244"/>
<defs>
<filter id="filter0_d_205_331" x="0" y="34" width="58" height="58" filterUnits="userSpaceOnUse" color-interpolation-filters="sRGB">
<feFlood flood-opacity="0" result="BackgroundImageFix"/>
<feColorMatrix in="SourceAlpha" type="matrix" values="0 0 0 0 0 0 0 0 0 0 0 0 0 0 0 0 0 0 127 0" result="hardAlpha"/>
<feOffset dy="4"/>
<feGaussianBlur stdDeviation="2"/>
<feComposite in2="hardAlpha" operator="out"/>
<feColorMatrix type="matrix" values="0 0 0 0 0.866667 0 0 0 0 0.466667 0 0 0 0 0.4 0 0 0 0.3 0"/>
<feBlend mode="normal" in2="BackgroundImageFix" result="effect1_dropShadow_205_331"/>
<feBlend mode="normal" in="SourceGraphic" in2="effect1_dropShadow_205_331" result="shape"/>
</filter>
</defs>
</svg>
