<svg width="375" height="185" viewBox="0 0 375 185" fill="none" xmlns="http://www.w3.org/2000/svg">
<path d="M167.96 144.45C124.895 144.229 90.9948 177.081 48.9861 181.58C28.595 183.761 8.73195 177.354 -7.19593 164.557C-23.8052 151.198 -34.6566 132.028 -38.8302 111.223C-43.4297 88.3722 -40.4826 64.4994 -32.2035 42.8418C-29.6994 36.2985 -26.7523 29.9597 -23.4304 23.8253C-21.2499 18.6964 -18.7628 13.6696 -15.969 8.83031C5.23974 -28.0609 41.0647 -54.7623 80.6033 -69.3313C103.567 -77.8001 127.842 -82.4008 152.219 -84.1389C176.613 -85.894 201.297 -84.9568 225.489 -81.4125C271.142 -74.6989 316.183 -56.5685 348.192 -22.3696C363.063 -6.47147 374.547 12.4939 380.729 33.4187C387.117 55.0593 387.986 78.5572 381.751 100.334C370.797 138.674 336.165 169.925 295.587 171.867C251.042 174.014 212.183 144.672 167.96 144.45Z" fill="#FFEBE1"/>
<path d="M323.891 119.889C319.445 99.0877 310.488 79.3172 297.816 62.2326C284.074 43.703 265.992 28.5649 245.367 18.2308C233.314 12.1903 220.475 7.77682 207.244 5.18108C205.385 4.81576 205.693 1.87096 207.562 2.23777C231.514 6.93672 254.23 17.3877 273.32 32.616C290.864 46.6108 305.091 64.5621 314.899 84.7379C320.262 95.7702 324.254 107.444 326.817 119.439C327.216 121.307 324.288 121.745 323.891 119.889Z" fill="#DD7766"/>
<path d="M280.811 112.582C286.047 102.906 291.533 93.2034 294.38 82.563C297.087 72.5158 297.204 61.3593 292.614 52.0857L292.093 52.3475C279.005 69.0593 274.657 92.2656 280.811 112.582Z" fill="#DD7766"/>
<path d="M351.586 65.063C344.87 58.3806 335.522 54.4138 326.039 54.2127C316.661 54.0219 307.246 57.508 300.269 63.8043L300.432 63.9951C307.984 68.8435 316.885 71.5679 325.849 71.7542C334.833 71.9332 343.843 69.5919 351.586 65.063Z" fill="#DD7766"/>
<path d="M258.797 96.6337C263.919 89.6111 269.094 82.4643 272.172 74.3369C276.691 62.3684 276.373 49.1812 275.92 36.3933L275.787 36.3918C271.092 37.7111 267.114 41.0213 264.287 44.9999C261.482 48.986 259.705 53.6198 258.371 58.3173C254.842 70.8227 254.224 84.4862 258.797 96.6337Z" fill="#DD7766"/>
<path d="M346.271 150.564C345.343 141.921 344.372 133.151 341.187 125.065C336.487 113.166 327.389 103.615 318.457 94.4513L318.358 94.54C315.77 98.6725 315.048 103.796 315.631 108.643C316.233 113.479 318.031 118.106 320.201 122.479C325.993 134.111 334.719 144.643 346.271 150.564Z" fill="#DD7766"/>
<path d="M343.846 40.0239C335.828 43.3754 327.674 46.7506 319.054 47.8569C306.362 49.475 293.611 46.1043 281.276 42.695L281.305 42.5649C283.679 38.3052 287.822 35.2036 292.348 33.3785C296.877 31.5755 301.796 30.9218 306.676 30.7147C319.659 30.1852 333.091 32.7543 343.846 40.0239Z" fill="#DD7766"/>
<path d="M293.671 132.738C299.359 123.319 305.299 113.889 308.648 103.396C311.828 93.488 312.473 82.3492 308.33 72.8685L307.797 73.1066C293.931 89.178 288.487 112.152 293.671 132.738Z" fill="#DD7766"/>
<path d="M361.404 105.804C357.452 97.1946 350.084 90.2075 341.27 86.6977C332.554 83.2368 322.514 83.2072 313.774 86.6622L313.859 86.8989C319.236 94.0841 326.62 99.7504 334.953 103.063C343.307 106.377 352.565 107.336 361.404 105.804Z" fill="#DD7766"/>
<path d="M245.986 79.1631C248.947 70.9914 251.924 62.685 252.614 54.0222C253.616 41.2668 249.633 28.6919 245.633 16.5371L245.505 16.5726C241.366 19.1491 238.467 23.4368 236.863 28.0456C235.279 32.6558 234.865 37.6017 234.893 42.4856C234.991 55.4791 238.206 68.7728 245.986 79.1631Z" fill="#DD7766"/>
<path d="M311.879 1.08529C305.112 6.54003 298.223 12.0554 290.253 15.5208C278.516 20.6117 265.33 20.9297 252.533 21.0954L252.527 20.9638C253.619 16.2116 256.732 12.0761 260.57 9.0633C264.416 6.06822 268.96 4.06853 273.586 2.50961C285.906 -1.6199 299.524 -2.89633 311.879 1.08529Z" fill="#DD7766"/>
<path d="M228.65 136.924C235.334 120.279 238.96 102.434 239.536 84.5154C240.108 66.7031 237.718 48.817 232.393 31.8064C229.367 22.1422 225.392 12.802 220.506 3.93065C219.737 2.53441 221.863 1.24321 222.638 2.64978C231.432 18.6206 237.295 36.0912 240.129 54.0942C242.969 72.1372 242.75 90.6609 239.417 108.624C237.545 118.717 234.656 128.591 230.832 138.116C230.235 139.598 228.061 138.393 228.65 136.924Z" fill="#FCB5A4"/>
<path d="M213.006 93.8229C205.39 103.142 200.353 115.257 202.123 127.173C220.219 112.595 235.637 93.4088 240.812 70.7586C248.642 86.6673 262.357 100.255 279.444 105.009C277.447 98.791 275.437 92.5228 272.38 86.7427C269.303 80.9699 265.089 75.6483 259.515 72.2465C253.922 68.8491 246.857 67.5505 240.692 69.7587L240.528 70.6047C230.65 77.4823 220.627 84.493 213.006 93.8229Z" fill="#FCB5A4"/>
<path d="M211.932 45.0415C216.581 41.2818 220.682 36.7825 223.528 31.5259C226.32 26.3685 227.849 20.4626 227.389 14.6455L227.021 14.6706C218.287 17.7707 210.595 23.7328 205.414 31.4224C200.233 39.1135 197.592 48.4744 197.998 57.7318C201.342 52.3658 207.026 49.0157 211.932 45.0415Z" fill="#FCB5A4"/>
<path d="M235.657 38.4834C226.095 43.5654 216.945 49.8085 210.223 58.2968C203.505 66.7762 199.404 77.7478 200.846 88.4783C208.501 81.2339 216.894 74.6906 223.702 66.6446C230.439 58.7006 235.648 48.887 235.667 38.4893L235.657 38.4834Z" fill="#FCB5A4"/>
<path d="M250.615 35.006C245.594 35.4335 240.737 36.8844 235.939 38.3827C247.49 51.3688 265.792 58.0186 283.002 55.4466C276.222 50.9606 272.823 42.5167 265.953 38.1668C261.458 35.3255 255.905 34.5549 250.615 35.006Z" fill="#FCB5A4"/>
<path d="M242.317 11.8741C237.296 12.3015 232.439 13.7525 227.641 15.2508C239.192 28.2368 257.494 34.8867 274.704 32.3146C267.924 27.8286 264.525 19.3847 257.655 15.0348C253.16 12.1935 247.606 11.423 242.317 11.8741Z" fill="#FCB5A4"/>
<path d="M240.076 93.7883C244.648 100.074 246.709 107.962 246.71 115.737C246.701 123.647 244.641 131.464 241.631 138.793C238.621 146.122 234.654 153.005 230.69 159.859C225.682 152.119 223.348 142.68 224.15 133.489C224.795 126.27 227.314 119.327 230.387 112.766C233.407 106.329 236.973 100.178 240.076 93.7883Z" fill="#FCB5A4"/>
<path d="M29.6852 104.467C34.1312 83.6653 43.0884 63.8948 55.7594 46.8103C69.5028 28.2807 87.5842 13.1426 108.208 2.8084C120.262 -3.23057 133.102 -7.64554 146.332 -10.2413C148.19 -10.6051 147.884 -13.5514 146.014 -13.1846C122.062 -8.48564 99.3456 1.96535 80.257 17.1937C62.711 31.19 48.4854 49.1398 38.6778 69.3155C33.3148 80.3478 29.3228 92.022 26.7581 104.017C26.3588 105.885 29.2873 106.323 29.6852 104.467Z" fill="#DD7766"/>
<path d="M72.7656 97.1602C67.5297 87.4827 62.0439 77.7801 59.1968 67.1413C56.4886 57.0941 56.3732 45.9361 60.9613 36.6639L61.4819 36.9257C74.5715 53.6361 78.9199 76.8439 72.7656 97.1602Z" fill="#DD7766"/>
<path d="M1.99054 49.6404C8.70544 42.9595 18.0531 38.9927 27.5382 38.7916C36.9154 38.5993 46.3311 42.0869 53.3078 48.3818L53.1436 48.574C45.593 53.4224 36.6921 56.1453 27.7275 56.3317C18.7423 56.5121 9.73338 54.1708 1.99054 49.6404Z" fill="#DD7766"/>
<path d="M94.779 81.2119C89.657 74.1894 84.4818 67.0426 81.4054 58.9152C76.8854 46.9452 77.2034 33.7594 77.6574 20.9701H77.7891C82.4836 22.2894 86.4622 25.598 89.2887 29.5782C92.0945 33.5642 93.8708 38.1981 95.2064 42.8956C98.7339 55.401 99.3522 69.0644 94.779 81.2119Z" fill="#DD7766"/>
<path d="M7.30597 135.141C8.23334 126.499 9.20507 117.73 12.3895 109.642C17.0884 97.7432 26.1876 88.1929 35.1196 79.0287L35.2172 79.1175C37.807 83.2499 38.5273 88.3749 37.9446 93.2202C37.3441 98.0567 35.5441 102.683 33.3743 107.057C27.5823 118.688 18.8574 129.22 7.30597 135.141Z" fill="#DD7766"/>
<path d="M9.73041 24.6012C17.7498 27.9542 25.9039 31.3279 34.5223 32.4343C47.2141 34.0524 59.965 30.6816 72.3003 27.2724L72.2707 27.1437C69.8983 22.884 65.754 19.781 61.2281 17.9573C56.6992 16.1529 51.7799 15.5006 46.9005 15.2935C33.9188 14.7625 20.4846 17.3331 9.73041 24.6012Z" fill="#DD7766"/>
<path d="M59.9048 117.316C54.2163 107.897 48.2779 98.4669 44.9279 87.9745C41.7479 78.0663 41.1031 66.9276 45.2459 57.4469L45.7798 57.6835C59.6445 73.7564 65.0889 96.7305 59.9048 117.316Z" fill="#DD7766"/>
<path d="M-7.82751 90.3823C-3.87548 81.7728 3.49168 74.7842 12.3054 71.2759C21.0229 67.8149 31.0627 67.7839 39.8024 71.2404L39.7167 71.4771C34.3403 78.6608 26.9554 84.3286 18.6239 87.6416C10.2702 90.9532 1.01131 91.9146 -7.82751 90.3823Z" fill="#DD7766"/>
<path d="M107.591 63.7406C104.63 55.5703 101.652 47.2625 100.963 38.5997C99.9602 25.8443 103.942 13.2709 107.943 1.11452L108.071 1.15149C112.211 3.72652 115.109 8.0143 116.713 12.623C118.296 17.2347 118.712 22.1807 118.684 27.063C118.586 40.0565 115.37 53.3502 107.591 63.7406Z" fill="#DD7766"/>
<path d="M124.926 121.502C118.243 104.858 114.616 87.0132 114.041 69.0945C113.468 51.2823 115.86 33.3946 121.183 16.384C124.209 6.71986 128.185 -2.62037 133.07 -11.4902C133.839 -12.888 131.714 -14.1792 130.94 -12.7726C122.144 3.19971 116.281 20.6688 113.447 38.6718C110.608 56.7163 110.828 75.2385 114.16 93.2016C116.031 103.295 118.921 113.169 122.746 122.694C123.341 124.176 125.517 122.971 124.926 121.502Z" fill="#FCB5A4"/>
<path d="M140.57 78.4011C148.186 87.7191 153.225 99.8355 151.453 111.751C133.358 97.1718 117.939 77.9855 112.764 55.3367C104.935 71.2454 91.2201 84.8335 74.1326 89.5857C76.1293 83.3678 78.1408 77.0995 81.198 71.3209C84.273 65.5466 88.4868 60.2265 94.0628 56.8247C99.6536 53.4273 106.719 52.1272 112.884 54.3369L113.048 55.1814C122.927 62.0605 132.949 69.0712 140.57 78.4011Z" fill="#FCB5A4"/>
<path d="M141.644 29.6199C136.996 25.8587 132.894 21.3609 130.049 16.1043C127.256 10.9469 125.728 5.04099 126.187 -0.776127L126.555 -0.750984C135.289 2.34911 142.981 8.31118 148.163 16.0008C153.344 23.6904 155.984 33.0528 155.578 42.3102C152.234 36.9442 146.55 33.5941 141.644 29.6199Z" fill="#FCB5A4"/>
<path d="M117.92 23.0608C127.482 28.1429 136.631 34.3859 143.355 42.8757C150.071 51.3536 154.173 62.3253 152.731 73.0558C145.075 65.8129 136.683 59.2695 129.875 51.222C123.138 43.278 117.928 33.466 117.909 23.0667L117.92 23.0608Z" fill="#FCB5A4"/>
<path d="M102.961 19.5842C107.982 20.0116 112.839 21.4626 117.637 22.9608C106.086 35.9469 87.784 42.5967 70.5737 40.0247C77.3552 35.5387 80.7541 27.0948 87.6228 22.7434C92.1176 19.9036 97.673 19.133 102.961 19.5842Z" fill="#FCB5A4"/>
<path d="M111.259 -3.54762C116.28 -3.12017 121.137 -1.66922 125.935 -0.170938C114.384 12.8152 96.0821 19.465 78.8718 16.8929C85.6533 12.4069 89.0507 3.96302 95.9209 -0.388359C100.416 -3.22814 105.971 -3.99873 111.259 -3.54762Z" fill="#FCB5A4"/>
<path d="M113.5 78.3664C108.928 84.6524 106.869 92.5402 106.866 100.316C106.875 108.226 108.937 116.042 111.945 123.371C114.955 130.7 118.922 137.583 122.887 144.436C127.894 136.697 130.228 127.258 129.426 118.067C128.781 110.848 126.262 103.905 123.189 97.3427C120.17 90.9073 116.604 84.7559 113.5 78.3664Z" fill="#FCB5A4"/>
<path d="M194.735 56.8654C196.081 66.8165 192.44 76.9968 188.247 86.2424C183.721 96.2319 178.373 106.029 170.898 114.031C167.037 129.494 162.023 144.652 157.011 159.809C156.536 161.232 156.036 162.706 155.061 163.848C153.804 165.31 151.779 166.079 149.868 165.823C148.392 165.631 147.021 164.81 146.112 163.643C145.597 164.296 144.982 164.887 144.264 165.36C143.29 166.015 142.032 166.438 140.917 166.054C139.994 165.746 139.327 164.964 138.724 164.194C130.735 154.166 124.491 142.779 116.079 133.111C114.707 132.482 113.348 131.83 112.002 131.175C110.398 130.38 108.77 129.546 107.565 128.212C106.244 126.751 105.577 124.828 104.975 122.955C100.293 108.415 97.294 93.3344 96.0619 78.1002C95.8563 75.4971 95.7158 72.7919 96.729 70.381C98.0882 67.1241 101.268 65.0594 104.269 63.1869C118.99 54.0449 133.711 44.9014 148.431 35.7712C157.818 22.9744 166.704 9.83005 175.077 -3.63377H253.529C233.243 15.8454 213.636 36.0285 194.735 56.8654ZM142.148 134.906C144.162 125.097 146.521 115.363 149.253 105.722C145.341 102.272 141.521 98.733 137.789 95.0916C136.968 104.912 136.134 114.748 135.301 124.571C137.699 127.931 140.083 131.328 142.148 134.906Z" fill="#FFAE82"/>
<path d="M115.824 131.223C113.523 128.48 113.379 124.671 113.15 121.263C112.874 117.123 112.597 112.983 112.322 108.844C111.761 100.457 111.202 92.0711 110.642 83.6849C110.532 82.0476 107.968 82.0357 108.077 83.6849C108.679 92.7086 109.283 101.731 109.884 110.755C110.171 115.047 110.376 119.357 110.762 123.643C111.068 127.057 111.757 130.349 114.011 133.036C115.073 134.303 116.879 132.48 115.824 131.223Z" fill="#FF9467"/>
<path d="M131.769 148.375C130.179 147.922 129.5 150.396 131.087 150.847C135.495 152.1 139.039 156.19 139.544 160.705C139.621 161.395 140.078 161.989 140.827 161.989C141.46 161.989 142.186 161.399 142.109 160.705C141.467 154.977 137.348 149.96 131.769 148.375Z" fill="#FF9467"/>
<path d="M142.458 131.989C141 129.61 139.045 127.399 138.095 124.742C137.048 121.811 137.626 118.535 137.858 115.511C138.36 109.005 138.858 102.5 139.358 95.9938C139.485 94.3476 136.919 94.355 136.793 95.9938C136.31 102.289 135.826 108.586 135.342 114.883C135.116 117.823 134.64 120.886 135.193 123.816C135.703 126.518 137.256 128.81 138.775 131.04C145.055 140.26 147.7 151.498 145.705 162.53C145.412 164.144 147.883 164.836 148.178 163.212C150.111 152.525 148.15 141.276 142.458 131.989Z" fill="#FF9467"/>
<path d="M162.186 132.147C161.058 131.434 159.928 130.721 158.799 130.008C158.232 129.65 157.36 129.869 157.045 130.468C156.711 131.1 156.899 131.839 157.505 132.222L160.892 134.361C161.46 134.72 162.33 134.498 162.646 133.901C162.981 133.269 162.793 132.53 162.186 132.147Z" fill="#FF9467"/>
<path d="M155.461 121.627C155.016 121.171 154.081 121.088 153.648 121.627C149.459 126.827 146.423 132.847 144.814 139.334C144.416 140.936 146.889 141.619 147.287 140.016C148.783 133.978 151.555 128.29 155.461 123.44C155.899 122.896 155.983 122.159 155.461 121.627Z" fill="#DD7766"/>
<path d="M287.618 168.028C271.605 154.39 248.576 158.555 230.709 165.746C211.178 173.607 191.239 185.898 169.344 181.51C159.632 179.563 150.495 174.421 145.933 165.323C145.192 163.847 142.979 165.144 143.718 166.617C151.932 182.99 173.011 187.194 189.585 184.018C212.043 179.714 231.054 164.61 253.963 162.02C265.103 160.759 277.015 162.356 285.805 169.842C287.055 170.907 288.877 169.101 287.618 168.028Z" fill="#DD7766"/>
</svg>
