<svg width="36" height="36" viewBox="0 0 36 36" fill="none" xmlns="http://www.w3.org/2000/svg">
<path d="M0 17.8321C0 7.9837 7.9839 -1.90735e-05 17.8323 -1.90735e-05C27.6809 -1.90735e-05 35.6644 7.9837 35.6644 17.8321C35.6644 27.6805 27.6809 35.6644 17.8323 35.6644C7.9839 35.6644 0 27.6805 0 17.8321Z" fill="#AB5244"/>
<path d="M29.1303 22.4325C9.44016 17.254 17.6464 6.11923 17.6464 6.11923C17.6464 6.11923 20.6928 9.35723 17.7135 16.0372" stroke="white" stroke-width="0.620928" stroke-miterlimit="10" stroke-linecap="round" stroke-linejoin="round"/>
<path d="M16.6658 17.8935C14.8076 20.5309 11.326 22.0855 6.32715 22.4241" stroke="white" stroke-width="0.620928" stroke-miterlimit="10" stroke-linecap="round" stroke-linejoin="round"/>
<path d="M17.9209 27.9214C20.6126 29.6355 23.8905 29.7896 26.6426 28.5721C28.0576 27.9462 29.3323 26.957 30.3173 25.6311C28.9603 24.7589 27.4526 24.2849 25.9372 24.1844C22.8967 23.9828 19.828 25.2874 17.8864 27.9001C17.8819 27.906 17.8773 27.9119 17.873 27.9179L17.9209 27.9214Z" stroke="white" stroke-width="0.620928" stroke-miterlimit="10" stroke-linecap="round" stroke-linejoin="round"/>
<path d="M17.8653 27.9214C15.1732 29.6355 11.8957 29.7896 9.14356 28.5721C7.72835 27.9462 6.45388 26.957 5.46851 25.6311C6.82567 24.7589 8.33341 24.2849 9.84875 24.1844C12.8894 23.9828 15.9581 25.2874 17.8996 27.9001C17.904 27.906 17.9085 27.9119 17.9131 27.9179L17.8653 27.9214Z" stroke="white" stroke-width="0.620928" stroke-miterlimit="10" stroke-linecap="round" stroke-linejoin="round"/>
</svg>
