<svg width="66" height="22" viewBox="0 0 66 22" fill="none" xmlns="http://www.w3.org/2000/svg">
<path d="M0.993273 17.0664C0.993273 16.6673 1.01504 16.3009 1.05858 15.9671C1.10937 15.6261 1.18193 15.2596 1.27625 14.8678H3.46392V15.7712C3.46392 16.2718 3.49295 16.7145 3.551 17.099C3.6163 17.4836 3.71788 17.8101 3.85575 18.0786C4.00086 18.3398 4.18952 18.5393 4.42171 18.6772C4.66116 18.8078 4.95139 18.8731 5.29242 18.8731C5.82936 18.8731 6.23933 18.728 6.52231 18.4378C6.80529 18.1403 6.94678 17.7085 6.94678 17.1426C6.94678 16.8523 6.92501 16.5875 6.88148 16.348C6.8452 16.1013 6.77627 15.8583 6.67468 15.6188C6.58035 15.3794 6.44975 15.129 6.28286 14.8678C6.11597 14.5994 5.90192 14.3019 5.64071 13.9753L2.70205 10.4816C2.17962 9.81405 1.77692 9.14288 1.49393 8.46807C1.21095 7.78601 1.06946 7.06042 1.06946 6.29129C1.06946 5.67453 1.16379 5.10857 1.35244 4.5934C1.54835 4.07822 1.82771 3.63561 2.1905 3.26556C2.5533 2.88825 2.99954 2.59801 3.52923 2.39484C4.06617 2.18442 4.67204 2.07921 5.34684 2.07921C6.16677 2.07921 6.84883 2.1953 7.39302 2.42749C7.94447 2.65969 8.38346 2.96444 8.70998 3.34174C9.03649 3.71905 9.26506 4.14353 9.39566 4.61516C9.53353 5.07954 9.60246 5.54755 9.60246 6.01919C9.60246 6.41827 9.56981 6.78832 9.5045 7.12935C9.44646 7.46312 9.37752 7.83318 9.29771 8.23951H7.12092V7.35791C7.12092 6.3711 6.97943 5.61649 6.69645 5.09406C6.41347 4.56437 5.95272 4.29953 5.31419 4.29953C4.78451 4.29953 4.38906 4.44828 4.12784 4.74577C3.86663 5.03601 3.73602 5.42783 3.73602 5.92124C3.73602 6.18245 3.75416 6.41827 3.79044 6.62869C3.83398 6.83911 3.89203 7.03502 3.96458 7.21642C4.0444 7.39057 4.13873 7.56108 4.24757 7.72797C4.35641 7.89485 4.47976 8.069 4.61762 8.2504L7.89368 12.2121C8.48867 12.9885 8.94579 13.7359 9.26506 14.4542C9.58432 15.1653 9.74395 15.9199 9.74395 16.7181C9.74395 17.3784 9.63874 17.9734 9.42832 18.5031C9.22515 19.0327 8.93128 19.4826 8.54672 19.8527C8.16215 20.2227 7.69777 20.5093 7.15358 20.7125C6.60938 20.9084 5.99625 21.0064 5.31419 21.0064C4.4725 21.0064 3.7723 20.8939 3.21359 20.669C2.66214 20.444 2.21953 20.1465 1.88575 19.7765C1.55924 19.4064 1.32705 18.9856 1.18918 18.5139C1.05858 18.0423 0.993273 17.5598 0.993273 17.0664ZM15.7192 20.9955C15.4 20.9955 15.0734 20.9701 14.7397 20.9193C14.4132 20.8685 14.0939 20.7633 13.7819 20.6037C13.4771 20.444 13.1869 20.2155 12.9112 19.918C12.6427 19.6205 12.4069 19.2286 12.2037 18.7425C12.0006 18.2564 11.8409 17.6577 11.7248 16.9467C11.6087 16.2356 11.5507 15.3866 11.5507 14.3998V12.0489C11.5507 11.0766 11.6087 10.2458 11.7248 9.55647C11.8482 8.8599 12.0114 8.27579 12.2146 7.80415C12.425 7.33252 12.6681 6.95884 12.9438 6.68311C13.2196 6.40013 13.5098 6.18608 13.8145 6.04096C14.1265 5.88858 14.4458 5.79063 14.7723 5.74709C15.0988 5.6963 15.4181 5.6709 15.7301 5.6709C16.0276 5.6709 16.336 5.69267 16.6552 5.73621C16.9745 5.77974 17.2865 5.87407 17.5913 6.01919C17.896 6.15705 18.1826 6.36748 18.4511 6.65046C18.7268 6.92618 18.9663 7.29987 19.1694 7.7715C19.3799 8.24314 19.5431 8.83087 19.6592 9.5347C19.7826 10.2313 19.8442 11.0693 19.8442 12.0489V14.3998C19.8442 15.3721 19.7826 16.2102 19.6592 16.914C19.5359 17.6178 19.369 18.2128 19.1585 18.699C18.9481 19.1851 18.705 19.5806 18.4293 19.8853C18.1536 20.1828 17.8634 20.415 17.5586 20.5819C17.2539 20.7488 16.9419 20.8576 16.6226 20.9084C16.3106 20.9664 16.0095 20.9955 15.7192 20.9955ZM15.741 18.8731C15.9877 18.8731 16.1945 18.8114 16.3614 18.6881C16.5355 18.5575 16.6734 18.3471 16.775 18.0568C16.8838 17.7666 16.96 17.3856 17.0035 16.914C17.0543 16.4351 17.0797 15.8437 17.0797 15.1399V11.4503C17.0797 10.7464 17.0543 10.1551 17.0035 9.67619C16.96 9.1973 16.8838 8.81273 16.775 8.52249C16.6734 8.225 16.5355 8.01095 16.3614 7.88034C16.1945 7.74973 15.9877 7.68443 15.741 7.68443C15.4798 7.68443 15.2585 7.74973 15.0771 7.88034C14.9029 8.01095 14.7578 8.225 14.6417 8.52249C14.5256 8.81273 14.4422 9.1973 14.3914 9.67619C14.3406 10.1551 14.3152 10.7464 14.3152 11.4503V15.1399C14.3152 15.8437 14.3406 16.4351 14.3914 16.914C14.4422 17.3856 14.5256 17.7666 14.6417 18.0568C14.7578 18.3471 14.9029 18.5575 15.0771 18.6881C15.2585 18.8114 15.4798 18.8731 15.741 18.8731ZM22.304 5.84505H25.0576V17.1099C25.0576 17.7702 25.1592 18.231 25.3624 18.4922C25.5656 18.7461 25.863 18.8731 26.2549 18.8731C26.5306 18.8731 26.7991 18.7969 27.0603 18.6445C27.3215 18.4922 27.5573 18.2745 27.7677 17.9915V5.84505H30.5214V20.8322H28.4208L28.1487 19.2323H28.1378C27.9201 19.5733 27.6879 19.8599 27.4412 20.0921C27.2018 20.317 26.9478 20.4984 26.6793 20.6363C26.4181 20.7669 26.1497 20.8612 25.8739 20.9193C25.5982 20.9773 25.3225 21.0064 25.0468 21.0064C24.1688 21.0064 23.4903 20.7016 23.0115 20.0921C22.5398 19.4826 22.304 18.5611 22.304 17.3276V5.84505ZM33.4491 1.03435H36.2028V20.8322H33.4491V1.03435ZM39.4571 7.80415H38.1619V5.84505H39.4571V4.76754C39.4571 3.95487 39.5405 3.29458 39.7074 2.78666C39.8743 2.27149 40.1028 1.87241 40.3931 1.58943C40.6906 1.29919 41.0352 1.10328 41.4271 1.0017C41.8261 0.900117 42.2542 0.849325 42.7114 0.849325C42.842 0.849325 42.9871 0.856581 43.1467 0.871093C43.3136 0.885605 43.4769 0.911001 43.6365 0.947281C43.8034 0.976305 43.963 1.01258 44.1154 1.05612C44.275 1.09966 44.4165 1.15408 44.5399 1.21938V3.15672C44.2351 3.0769 43.8941 3.03699 43.5168 3.03699C43.3354 3.03699 43.1612 3.06602 42.9943 3.12407C42.8347 3.18211 42.6932 3.28007 42.5699 3.41793C42.4465 3.54854 42.3486 3.72631 42.276 3.95124C42.2034 4.16892 42.1672 4.44102 42.1672 4.76754V5.84505H44.246V7.80415H42.1672V20.8322H39.4571V7.80415ZM45.8133 5.84505H48.5669V17.1099C48.5669 17.7702 48.6685 18.231 48.8717 18.4922C49.0748 18.7461 49.3723 18.8731 49.7641 18.8731C50.0399 18.8731 50.3083 18.7969 50.5696 18.6445C50.8308 18.4922 51.0666 18.2745 51.277 17.9915V5.84505H54.0306V20.8322H51.93L51.6579 19.2323H51.6471C51.4294 19.5733 51.1972 19.8599 50.9505 20.0921C50.711 20.317 50.4571 20.4984 50.1886 20.6363C49.9274 20.7669 49.6589 20.8612 49.3832 20.9193C49.1075 20.9773 48.8318 21.0064 48.556 21.0064C47.6781 21.0064 46.9996 20.7016 46.5207 20.0921C46.0491 19.4826 45.8133 18.5611 45.8133 17.3276V5.84505ZM56.9584 1.03435H59.7121V20.8322H56.9584V1.03435ZM62.6398 1.03435H65.3935V20.8322H62.6398V1.03435Z" fill="#AB5244"/>
</svg>
