<svg width="196" height="233" viewBox="0 0 196 233" fill="none" xmlns="http://www.w3.org/2000/svg">
<path d="M227.124 144.466C230.289 159.471 230.744 174.962 229.487 190.221C228.295 204.73 225.71 219.197 221.595 233.168C217.627 246.591 212.161 259.676 204.627 271.505C197.176 283.186 187.679 293.548 176.231 301.41C164.422 309.514 150.842 314.8 136.86 317.713C122.679 320.668 108.052 321.311 93.6167 320.298C78.2642 319.232 62.6458 316.668 48.1481 311.424C34.3974 306.443 21.4815 298.582 12.2377 287.08C3.57431 276.316 -1.30083 262.746 0.303111 248.849C1.07343 242.19 3.22608 235.669 6.97213 230.076C10.7298 224.463 15.9838 220.02 21.9141 216.823C34.313 210.133 48.6008 208.676 62.382 207.168C77.209 205.542 92.9202 203.506 105.088 194.093C108.527 191.434 111.534 188.363 114.226 185.018C117.751 178.75 120.683 172.123 123.291 165.465C129.221 150.28 133.821 134.505 141.482 120.048C148.372 107.069 158.335 94.4695 173.043 90.2802C179.925 88.3175 187.236 88.5391 193.831 91.3882C200.163 94.1318 205.397 98.9225 209.607 104.304C218.629 115.848 224.116 130.242 227.124 144.466Z" fill="#FFD3C0"/>
<path d="M31.597 213.139C42.3107 225.581 55.6983 235.655 70.6076 242.534C86.7758 249.995 104.627 253.552 122.422 252.914C132.824 252.541 143.153 250.776 153.075 247.635C154.467 247.193 155.352 249.303 153.949 249.746C135.987 255.433 116.733 256.766 98.1648 253.522C81.0987 250.54 64.8165 243.65 50.7029 233.617C42.986 228.131 35.9603 221.701 29.782 214.527C28.8196 213.41 30.642 212.029 31.597 213.139Z" fill="#DD7766"/>
<path d="M63.4805 202.136C63.5174 210.629 63.395 219.23 65.4052 227.49C67.293 235.299 71.3461 242.898 77.8864 247.48L78.1428 247.109C80.8199 230.945 75.1713 213.617 63.4805 202.136Z" fill="#DD7766"/>
<path d="M84.2953 204.786C83.4269 211.438 82.5669 218.196 83.4923 224.839C84.8652 234.618 89.9629 243.431 95.0048 251.926L95.0945 251.877C97.7864 249.246 99.2563 245.53 99.6963 241.788C100.119 238.051 99.6077 234.254 98.772 230.578C96.5317 220.802 91.8908 211.319 84.2953 204.786Z" fill="#DD7766"/>
<path d="M5.08234 200.65C8.90964 206.161 12.8161 211.741 17.9666 216.038C25.5558 222.357 35.2544 225.456 44.6965 228.356L44.7303 228.259C44.954 224.503 43.5453 220.764 41.3568 217.698C39.1577 214.645 36.2263 212.178 33.1376 210.018C24.9069 204.285 15.0975 200.383 5.08234 200.65Z" fill="#DD7766"/>
<path d="M47.3068 193.247C46.9417 201.732 46.4109 210.319 48.0285 218.665C49.5428 226.553 53.2308 234.336 59.5484 239.222L59.8207 238.864C63.2607 222.846 58.4405 205.27 47.3068 193.247Z" fill="#DD7766"/>
<path d="M11.4065 236.57C17.2714 240.937 24.848 242.941 32.1174 242.054C39.3035 241.17 46.1139 237.473 50.7527 231.897L50.6071 231.768C44.3052 228.894 37.2057 227.79 30.3351 228.631C23.4519 229.481 16.8251 232.259 11.4065 236.57Z" fill="#DD7766"/>
<path d="M99.4415 211.875C100.462 218.505 101.521 225.234 104.262 231.356C108.305 240.366 115.659 247.407 122.87 254.159L122.942 254.088C124.792 250.809 125.169 246.832 124.549 243.116C123.912 239.409 122.363 235.904 120.535 232.608C115.658 223.844 108.558 216.031 99.4415 211.875Z" fill="#DD7766"/>
<path d="M89.7941 166.335C91.4307 180.083 95.582 193.511 101.827 205.861C108.036 218.136 116.278 229.365 126.182 238.915C131.81 244.341 137.962 249.193 144.556 253.392C145.594 254.054 144.633 255.715 143.587 255.049C131.716 247.488 121.277 237.828 112.69 226.683C104.086 215.515 97.3759 202.889 92.9819 189.489C90.5116 181.96 88.8117 174.203 87.8757 166.335C87.7301 165.112 89.6495 165.123 89.7941 166.335Z" fill="#FCB5A4"/>
<path d="M116.35 189.733C118.056 180.602 116.983 170.531 111.371 163.115C104.514 179.69 101.175 198.395 106.057 215.651C94.8645 207.776 80.543 203.651 67.2113 206.758C70.8655 210.231 74.5493 213.731 78.7597 216.513C82.9795 219.285 87.804 221.328 92.8406 221.569C97.8856 221.799 103.151 220.062 106.509 216.283L106.306 215.651C110.45 207.335 114.643 198.874 116.35 189.733Z" fill="#FCB5A4"/>
<path d="M135.14 222.375C133.385 226.643 132.272 231.208 132.291 235.821C132.31 240.349 133.461 244.914 135.926 248.684L136.167 248.53C140.933 243.197 143.935 236.311 144.598 229.184C145.259 222.058 143.581 214.74 139.878 208.62C139.6 213.493 136.991 217.867 135.14 222.375Z" fill="#FCB5A4"/>
<path d="M121.5 235.601C126.094 228.618 129.979 221.003 131.39 212.763C132.799 204.534 131.514 195.585 126.565 188.85C124.061 196.591 120.799 204.131 119.169 212.101C117.548 219.976 117.654 228.551 121.49 235.601H121.5Z" fill="#FCB5A4"/>
<path d="M112.657 243.496C115.898 241.347 118.652 238.564 121.346 235.774C108.714 231.256 93.8567 233.53 83.1525 241.644C89.4068 242.171 94.8349 246.632 101.099 247.035C105.194 247.294 109.242 245.759 112.657 243.496Z" fill="#FCB5A4"/>
<path d="M98.0276 199.781C92.6038 197.217 88.289 192.637 85.4072 187.371C82.4852 182.011 80.9868 175.954 80.3104 169.876C79.6351 163.798 79.7723 157.667 79.92 151.557C86.1785 154.944 91.2531 160.474 94.1128 166.995C96.3498 172.123 97.2151 177.758 97.5644 183.34C97.901 188.817 97.7638 194.305 98.0276 199.781Z" fill="#FCB5A4"/>
<path d="M137.662 79.6294C136.318 82.9407 133.812 85.7402 130.738 87.552L127.023 87.4971C124.516 87.4602 122.504 85.4194 122.495 82.9132L122.485 77.0863L122.375 50.9399C122.367 49.8319 121.78 48.8717 120.902 48.3314C120.426 48.0391 119.869 47.8745 119.274 47.8745H119.211L109.22 47.9114C107.519 47.9198 106.137 46.5481 106.127 44.846L106.119 44.3247C106.119 43.4373 106.493 42.6047 107.153 42.019C108.799 40.5375 109.814 38.369 109.722 35.9631C109.577 31.9838 106.274 28.6989 102.303 28.5533C102.194 28.5533 102.083 28.5438 101.965 28.5438C97.7201 28.5807 94.2885 32.0377 94.317 36.2923C94.317 38.598 95.3416 40.6652 96.9613 42.0739C97.6103 42.6416 97.9849 43.4837 97.9849 44.3616L97.9944 44.8734C98.0039 46.2916 97.0531 47.4904 95.7436 47.847C95.4872 47.9294 95.2044 47.9747 94.9205 47.9747L85.9005 48.0117C84.1984 48.0117 82.8266 49.4024 82.835 51.1035L82.872 60.9297C82.8815 61.7802 82.5343 62.5484 81.9761 63.1067C81.4263 63.6649 80.6497 64.012 79.7981 64.0215C78.8927 64.0215 78.0232 63.6374 77.4386 62.923C76.0193 61.2125 73.8699 60.1246 71.4724 60.133C67.4478 60.152 64.1639 63.2438 63.8157 67.1598C63.7882 67.4985 63.7787 67.8362 63.7977 68.1833C63.9898 72.3188 67.5491 75.6501 71.6919 75.5488C73.834 75.4939 75.7545 74.5601 77.1273 73.106C77.7119 72.4749 78.5635 72.1637 79.414 72.1637H79.8435C81.5456 72.1542 82.9268 73.527 82.9363 75.228V77.0863L82.9448 78.686L82.9543 81.1394V82.9586C82.9638 85.4933 80.905 87.552 78.3714 87.552H52.2884C34.8698 87.552 34.5859 69.7398 34.4667 69.7303C28.1005 69.438 21.824 67.2326 16.6735 63.4633C13.4255 61.0848 10.5627 57.993 9.22676 54.1963C8.05546 50.866 8.24751 46.9406 10.1142 44.005C8.77723 38.7436 9.99496 32.8702 13.3706 28.6071C16.5363 24.5909 21.5212 22.1027 26.6084 21.8832C27.8346 16.6134 31.4941 11.9388 36.3418 9.53286C40.7516 7.34644 46.0309 7.07208 50.6602 8.6908C54.3102 3.69642 60.248 0.411491 66.4231 0.0368881C72.5624 -0.338768 78.8009 2.16845 83.0187 6.62361C87.7672 3.8241 93.7313 3.12026 98.9642 4.84028C103.484 6.32182 107.363 9.57824 109.732 13.6957C115.734 13.147 121.99 15.8093 125.66 20.6212C129.246 25.3053 130.216 31.8372 128.294 37.3993C131.085 38.369 133.564 40.318 135.257 42.7693C137.681 46.2916 138.559 50.7468 138.212 55.0099C137.955 58.1112 137.096 61.1302 135.87 64.0036C139.016 68.4683 139.721 74.5601 137.662 79.6294Z" fill="#F4A392"/>
<path d="M18.7054 43.2768C15.8933 41.7942 14.1627 38.4554 14.7357 35.295C14.8243 34.8096 14.6038 34.3084 14.0973 34.1702C13.6541 34.0478 13.06 34.32 12.9714 34.8086C12.697 36.3302 12.8194 37.8909 13.2753 39.3418C9.66005 42.4326 7.53589 47.2043 7.83557 51.975C8.13314 56.7172 10.6741 61.0562 14.5384 63.7766C15.5028 64.4551 16.4177 62.8702 15.4617 62.1969C12.0544 59.7974 9.80884 55.8107 9.64739 51.631C9.49438 47.6517 11.1827 43.8434 14.0413 41.1336C14.8971 42.6869 16.1729 44.008 17.7811 44.8575C18.8215 45.4062 19.748 43.8265 18.7054 43.2768Z" fill="#DD7766"/>
<path d="M42.1153 72.7199C40.4797 70.8247 40.0956 67.9239 41.1751 65.6741C41.3893 65.2288 41.2986 64.6865 40.848 64.4237C40.447 64.1894 39.8096 64.3034 39.5954 64.7508C39.0182 65.9538 38.7565 67.2538 38.7745 68.5454C38.7565 68.5496 38.7428 68.5444 38.7249 68.5496C35.3059 69.5004 31.7002 69.283 28.4037 67.9777C27.9436 67.7962 27.3991 68.1771 27.2778 68.6161C27.1353 69.1363 27.4561 69.5595 27.9173 69.742C31.4301 71.1339 35.3524 71.3312 38.9992 70.3636C39.3042 71.6879 39.9036 72.9499 40.8216 74.0136C41.1445 74.3882 41.785 74.3449 42.1153 74.0136C42.4867 73.6421 42.4393 73.0945 42.1153 72.7199Z" fill="#DD7766"/>
<path d="M32.2328 27.0963C30.8462 27.2409 29.4301 27.396 28.1142 27.8603C27.5993 25.848 27.498 23.7439 27.8683 21.6957C27.957 21.2092 27.7364 20.7091 27.2299 20.5698C26.7867 20.4484 26.1926 20.7207 26.104 21.2092C25.6534 23.6985 25.7547 26.2469 26.4406 28.6823C25.3084 29.4432 24.3924 30.5701 24.0938 31.9145C23.9883 32.3967 24.2405 32.9043 24.7333 33.0394C25.1923 33.166 25.7505 32.8853 25.8581 32.401C26.1103 31.2624 26.9302 30.4425 27.9844 29.8916C29.2781 29.2163 30.804 29.0749 32.2328 28.9261C32.7234 28.8754 33.1466 28.542 33.1466 28.0112C33.1466 27.5564 32.7277 27.0446 32.2328 27.0963Z" fill="#DD7766"/>
<path d="M28.895 50.9308C28.3579 50.9551 28.0319 51.3339 27.9802 51.8457C27.978 51.8615 27.977 51.8784 27.9749 51.8953C27.9717 51.9227 27.9654 51.9512 27.9612 51.9755C27.9432 52.0789 27.92 52.1833 27.8947 52.2857C27.8482 52.4714 27.7892 52.6561 27.7195 52.8355C27.7195 52.8376 27.7185 52.8386 27.7174 52.8407C27.6963 52.8618 27.672 52.942 27.6625 52.9621C27.6172 53.0571 27.5686 53.151 27.5159 53.2438C27.4219 53.4148 27.3143 53.5783 27.2003 53.7377C27.2025 53.7356 27.2056 53.7303 27.2077 53.7303C27.2056 53.7303 27.1982 53.743 27.193 53.7472C27.1919 53.7493 27.1898 53.7525 27.1887 53.7546C27.1497 53.8073 27.1455 53.8084 27.1497 53.7968C27.136 53.8168 27.1191 53.839 27.1159 53.8421C27.0484 53.9234 26.9777 54.0025 26.9038 54.0785C26.7666 54.222 26.621 54.356 26.467 54.4806C26.4722 54.4774 26.4775 54.4732 26.4828 54.4711C26.4754 54.4742 26.468 54.4827 26.4596 54.4879C26.4585 54.4879 26.4575 54.489 26.4575 54.4901C26.4121 54.5259 26.4015 54.5323 26.4036 54.528C26.3825 54.5439 26.3614 54.5586 26.3424 54.5713C26.2633 54.6262 26.182 54.6779 26.0997 54.7285C25.9182 54.8372 25.7283 54.9322 25.5331 55.0166C25.3379 55.101 25.1669 55.368 25.1131 55.5632C25.0519 55.7827 25.0804 56.074 25.2049 56.2681C25.3315 56.4633 25.5194 56.6353 25.7515 56.6891C26.0079 56.7472 26.2179 56.6997 26.4564 56.5963C28.3558 55.7774 29.6063 53.8706 29.8089 51.8457C29.8574 51.3687 29.3551 50.9097 28.895 50.9308Z" fill="#DD7766"/>
<path d="M58.0291 22.094C56.4758 21.9083 54.8908 22.2354 53.5106 22.9551C51.2651 19.4021 50.7575 14.9881 52.181 11.0194C52.5788 9.90931 50.8113 9.43129 50.4167 10.5329C48.8307 14.9564 49.4353 20.0458 51.9837 23.9871C51.9383 24.0272 51.8877 24.062 51.8423 24.1031C50.2141 25.5847 49.2971 27.7838 49.3087 29.9744C49.315 31.151 51.1458 31.1542 51.1385 29.9744C51.129 28.2386 51.8497 26.5671 53.136 25.3968C54.4571 24.196 56.2774 23.7148 58.0291 23.9238C58.5208 23.9828 58.944 23.4616 58.944 23.0089C58.944 22.4665 58.5219 22.1531 58.0291 22.094Z" fill="#DD7766"/>
<path d="M87.0221 17.9045C86.4206 16.4229 85.3886 15.1567 83.9798 14.3705C84.6847 12.1007 84.7607 9.66634 84.2236 7.35118C84.1107 6.86999 83.5599 6.58508 83.0977 6.71277C82.6038 6.84783 82.3464 7.35434 82.4582 7.83764C82.9109 9.78769 82.8296 11.8 82.2714 13.71C81.1719 13.4462 80.0101 13.4504 78.9053 13.7311C77.7646 14.0202 78.2479 15.7856 79.3917 15.4954C80.6052 15.1873 81.9232 15.3213 83.0428 15.9418C84.0231 16.4842 84.8525 17.3948 85.2577 18.3909C85.4434 18.8489 85.8666 19.1718 86.3836 19.0294C86.8173 18.9112 87.2088 18.3656 87.0221 17.9045Z" fill="#DD7766"/>
<path d="M109.257 13.831C108.766 13.697 108.278 13.9967 108.131 14.4694C107.386 16.8838 105.801 19.1061 103.75 20.5665C103.702 20.6003 103.67 20.6456 103.628 20.6857C102.68 19.736 101.516 18.9984 100.223 18.5869C99.7684 18.4413 99.2059 18.7568 99.0983 19.2264C98.9854 19.7255 99.2492 20.1951 99.7378 20.3512C99.8844 20.3987 100.03 20.4483 100.175 20.5042C100.199 20.5137 100.43 20.6182 100.24 20.5296C100.31 20.5623 100.38 20.5929 100.45 20.6256C100.716 20.7533 100.974 20.8968 101.224 21.0551C101.353 21.1384 101.481 21.225 101.606 21.3157C101.633 21.3358 101.66 21.3558 101.675 21.3664C101.722 21.4033 101.769 21.4413 101.816 21.4803C102.053 21.6777 102.278 21.8887 102.489 22.1135C102.595 22.2253 102.698 22.3403 102.797 22.4585C102.835 22.505 102.872 22.5524 102.91 22.5989C102.928 22.6221 102.946 22.6453 102.961 22.6685C103.136 22.907 103.297 23.155 103.442 23.4124C103.518 23.5465 103.589 23.6826 103.656 23.8219C103.69 23.8915 103.721 23.9612 103.753 24.0319C103.76 24.0466 103.763 24.0519 103.768 24.0625C103.772 24.073 103.775 24.0793 103.781 24.0962C103.891 24.3854 103.987 24.6766 104.063 24.9763C104.181 25.4395 104.725 25.7656 105.189 25.6147C105.668 25.4606 105.955 24.9868 105.827 24.4898C105.607 23.6267 105.23 22.8226 104.752 22.085C107.19 20.3227 109.006 17.8356 109.895 14.9559C110.041 14.4842 109.722 13.9587 109.257 13.831Z" fill="#DD7766"/>
<path d="M120.16 93.9852L99.4561 133.786C98.3998 135.815 95.8958 136.606 93.8666 135.551L54.0645 114.846C52.0353 113.791 51.245 111.286 52.3002 109.256L58.0385 98.2272C59.0948 96.198 58.3034 93.694 56.2742 92.6377L55.6748 92.3253C54.6755 91.8062 53.4989 91.7101 52.4416 92.0763C49.9027 92.9521 47.0357 92.854 44.462 91.5772C39.4771 89.1069 37.3128 82.9191 39.6734 77.8867C42.189 72.5335 48.628 70.3861 53.8377 73.097C56.7026 74.587 58.5798 77.224 59.1919 80.1512C59.443 81.3542 60.2365 82.3651 61.3245 82.9307C62.3385 83.4583 63.4708 83.5216 64.4828 83.2019C65.4937 82.8832 66.3853 82.1804 66.9129 81.1674L73.0048 69.4554C74.06 67.4262 76.5651 66.6359 78.5943 67.6911L89.3491 73.2859C91.3783 74.3411 93.8824 73.5508 94.9376 71.5216L95.2584 70.9043C95.8029 69.8575 95.8842 68.6313 95.46 67.5434C94.4142 64.8557 94.4892 61.7586 95.919 59.0077C98.6267 53.8054 105.135 51.8596 110.268 54.7984C114.91 57.4501 116.774 63.4217 114.471 68.2451C113.074 71.1702 110.51 73.1245 107.617 73.8483C106.471 74.129 105.506 74.8941 104.957 75.9493L104.636 76.5666C103.581 78.5958 104.371 81.0998 106.401 82.1561L118.395 88.3957C120.424 89.4509 121.216 91.956 120.16 93.9852Z" fill="#FCB5A4"/>
<path d="M106.127 104.014L99.6135 116.536L89.2322 111.137L83.8326 121.517L71.3103 115.003L76.7098 104.623L66.3296 99.2222L72.8435 86.6998L83.2248 92.0994L88.6202 81.7276L101.143 88.2415L95.7472 98.6144L106.127 104.014Z" fill="#DD7766"/>
<path d="M139.845 231.467C149.643 221.165 159.728 211.133 170.081 201.406C171.346 200.206 172.62 199.012 173.903 197.845C178.677 203.537 182.962 209.645 187.23 215.731C197.193 229.955 207.161 244.161 216.998 258.48L154.677 276.361C149.126 262.088 143.498 247.846 137.784 233.639C138.469 232.909 139.155 232.18 139.845 231.467Z" fill="#EF9A89"/>
<path d="M155.108 142.752C154.256 156.473 154.155 170.247 154.819 183.972C160.068 189.632 164.812 195.78 170.08 201.406C159.728 211.134 149.643 221.166 139.845 231.467C137.858 227.592 135.873 223.727 133.886 219.852C133.017 218.151 132.139 216.452 131.211 214.777C126.778 213.659 123.076 210.372 120.352 206.653C116.343 201.169 114.021 194.639 112.416 188.017C109.63 187.095 107.3 184.68 105.647 182.137C101.271 175.379 99.8044 166.816 101.679 158.987L101.676 158.978C100.373 150.786 102.422 142.307 104.909 134.285C104.082 132.333 103.279 130.365 102.547 128.376C102.093 127.126 101.657 125.872 101.265 124.605C99.8255 119.954 98.8853 115.151 99.0035 110.32C99.013 109.888 99.0257 109.466 99.0552 109.039C99.1523 107.488 99.4172 105.823 100.506 104.71C101.499 103.693 103.017 103.343 104.438 103.421C106.946 103.539 109.28 104.839 111.088 106.595L112.511 108.689L113.876 106.061C117.455 105.368 121.044 104.671 124.625 103.987C125.852 103.749 127.126 103.516 128.325 103.877C129.5 104.224 130.432 105.119 131.308 105.98C137.918 112.498 144.223 119.312 150.215 126.396C151.828 128.304 153.45 130.275 154.341 132.618C155.569 135.806 155.327 139.34 155.108 142.752Z" fill="#FF9467"/>
<path d="M119.772 121.968C123.357 124.576 126.941 127.182 130.523 129.781C130.059 132.941 129.434 136.07 128.655 139.159C125.312 133.713 122.53 127.83 119.772 121.968Z" fill="#D87552"/>
<path d="M106.22 135.102C105.74 134.032 104.18 134.993 104.658 136.056C107.808 143.073 110.173 150.439 111.705 157.976C112.46 161.684 113.118 165.486 113.343 169.269C113.447 171.028 112.961 172.747 110.889 172.821C109.177 172.883 107.684 171.619 106.579 170.448C103.93 167.641 102.752 163.742 103.149 159.934C103.272 158.763 101.441 158.794 101.319 159.953C100.92 163.782 102.044 167.715 104.433 170.74C106.422 173.261 110.08 176.026 113.314 173.937C114.249 176.322 114.917 178.817 115.198 181.366C115.329 182.55 115.477 183.82 115.147 184.984C114.892 185.886 114.068 186.927 113.012 186.746C111.856 186.549 111.397 188.322 112.559 188.52C113.952 188.758 115.27 188.172 116.125 187.055C117.049 185.85 117.222 184.287 117.15 182.814C116.981 179.309 116.118 175.817 114.749 172.593C114.725 172.536 114.686 172.49 114.656 172.437C115.081 171.578 115.219 170.571 115.19 169.585C115.125 167.465 114.775 165.32 114.467 163.225C113.802 158.687 112.846 154.192 111.594 149.778C110.17 144.757 108.357 139.863 106.22 135.102Z" fill="#D87552"/>
<path d="M137.901 151.323C132.291 144.271 127.356 136.693 123.205 128.694C121.152 124.732 119.34 120.671 117.634 116.55C116.105 112.859 114.444 109.006 111.458 106.238C108.628 103.614 104.732 102.06 100.89 103.038C99.7478 103.328 100.253 105.087 101.394 104.796C104.834 103.921 108.299 105.6 110.682 108.037C113.513 110.932 114.973 114.886 116.493 118.555C119.672 126.222 123.499 133.61 127.975 140.6C130.559 144.634 133.356 148.529 136.34 152.277C137.062 153.186 138.634 152.245 137.901 151.323Z" fill="#D87552"/>
<path d="M110.41 116.336C110.168 115.94 109.553 115.738 109.152 116.032C108.066 116.827 106.772 117.088 105.475 116.687C104.367 116.345 103.366 115.366 102.973 114.32C102.799 113.857 102.343 113.549 101.842 113.693C101.395 113.821 101.039 114.36 101.214 114.825C101.856 116.529 103.193 117.852 104.927 118.429C106.64 119 108.655 118.656 110.106 117.593C110.505 117.302 110.683 116.783 110.41 116.336Z" fill="#FF9467"/>
<path d="M117.053 130.592C116.708 130.29 116.079 130.222 115.759 130.622L112.062 135.254C111.763 135.628 111.696 136.203 112.091 136.549C112.437 136.851 113.066 136.919 113.385 136.519C114.617 134.974 115.85 133.43 117.082 131.886C117.381 131.513 117.447 130.938 117.053 130.592Z" fill="#D87552"/>
<path d="M132.89 124.845C132.491 124.623 131.845 124.745 131.646 125.201C131.17 126.304 130.736 127.42 130.339 128.55C127.01 126.202 123.68 123.854 120.351 121.505C119.947 121.219 119.329 121.463 119.108 121.861C118.846 122.332 119.061 122.82 119.465 123.106C122.862 125.502 126.259 127.898 129.656 130.295C129.685 130.316 129.721 130.315 129.752 130.33C128.929 132.986 128.325 135.705 127.964 138.473C127.9 138.962 128.106 139.453 128.624 139.585C129.059 139.696 129.673 139.417 129.737 138.924C130.314 134.509 131.48 130.177 133.247 126.089C133.443 125.635 133.353 125.101 132.89 124.845Z" fill="#D87552"/>
</svg>
