<svg width="150" height="46" viewBox="0 0 150 46" fill="none" xmlns="http://www.w3.org/2000/svg">
<path d="M0.0361328 36.5527C0.0361328 35.6576 0.0849609 34.8356 0.182617 34.0869C0.296549 33.3219 0.45931 32.5 0.670898 31.6211H5.57812V33.6475C5.57812 34.7705 5.64323 35.7633 5.77344 36.626C5.91992 37.4886 6.14779 38.221 6.45703 38.8232C6.78255 39.4092 7.20573 39.8568 7.72656 40.166C8.26367 40.459 8.91471 40.6055 9.67969 40.6055C10.8841 40.6055 11.8037 40.2799 12.4385 39.6289C13.0732 38.9616 13.3906 37.9932 13.3906 36.7236C13.3906 36.0726 13.3418 35.4785 13.2441 34.9414C13.1628 34.388 13.0081 33.8428 12.7803 33.3057C12.5687 32.7686 12.2757 32.207 11.9014 31.6211C11.527 31.0189 11.0469 30.3516 10.4609 29.6191L3.86914 21.7822C2.69727 20.2848 1.79395 18.7793 1.15918 17.2656C0.524414 15.7357 0.207031 14.1081 0.207031 12.3828C0.207031 10.9993 0.41862 9.72982 0.841797 8.57422C1.28125 7.41862 1.90788 6.42578 2.72168 5.5957C3.53548 4.74935 4.53646 4.09831 5.72461 3.64258C6.92904 3.17057 8.28809 2.93457 9.80176 2.93457C11.641 2.93457 13.1709 3.19499 14.3916 3.71582C15.6286 4.23665 16.6133 4.92025 17.3457 5.7666C18.0781 6.61296 18.5908 7.5651 18.8838 8.62305C19.193 9.66471 19.3477 10.7145 19.3477 11.7725C19.3477 12.6676 19.2744 13.4977 19.1279 14.2627C18.9977 15.0114 18.8431 15.8415 18.6641 16.7529H13.7812V14.7754C13.7812 12.5618 13.4639 10.8691 12.8291 9.69727C12.1943 8.50911 11.1608 7.91504 9.72852 7.91504C8.54036 7.91504 7.65332 8.2487 7.06738 8.91602C6.48145 9.56706 6.18848 10.446 6.18848 11.5527C6.18848 12.1387 6.22917 12.6676 6.31055 13.1396C6.4082 13.6117 6.53841 14.0511 6.70117 14.458C6.88021 14.8486 7.0918 15.2311 7.33594 15.6055C7.58008 15.9798 7.85677 16.3704 8.16602 16.7773L15.5146 25.6641C16.8493 27.4056 17.8747 29.082 18.5908 30.6934C19.307 32.2884 19.665 33.9811 19.665 35.7715C19.665 37.2526 19.429 38.5872 18.957 39.7754C18.5013 40.9635 17.8421 41.9727 16.9795 42.8027C16.1169 43.6328 15.0752 44.2757 13.8545 44.7314C12.6338 45.1709 11.2585 45.3906 9.72852 45.3906C7.84049 45.3906 6.26986 45.1383 5.0166 44.6338C3.77962 44.1292 2.78678 43.4619 2.03809 42.6318C1.30566 41.8018 0.784831 40.8577 0.475586 39.7998C0.182617 38.7419 0.0361328 37.6595 0.0361328 36.5527ZM33.0684 45.3662C32.3522 45.3662 31.6198 45.3092 30.8711 45.1953C30.1387 45.0814 29.4225 44.8454 28.7227 44.4873C28.0391 44.1292 27.388 43.6165 26.7695 42.9492C26.1673 42.2819 25.6383 41.403 25.1826 40.3125C24.7269 39.222 24.3688 37.8792 24.1084 36.2842C23.848 34.6891 23.7178 32.7848 23.7178 30.5713V25.2979C23.7178 23.1169 23.848 21.2533 24.1084 19.707C24.3851 18.1445 24.7513 16.8343 25.207 15.7764C25.679 14.7184 26.2243 13.8802 26.8428 13.2617C27.4613 12.627 28.1123 12.1468 28.7959 11.8213C29.4958 11.4795 30.2119 11.2598 30.9443 11.1621C31.6768 11.0482 32.3929 10.9912 33.0928 10.9912C33.7601 10.9912 34.4518 11.04 35.168 11.1377C35.8841 11.2354 36.584 11.4469 37.2676 11.7725C37.9512 12.0817 38.5941 12.5537 39.1963 13.1885C39.8148 13.807 40.3519 14.6452 40.8076 15.7031C41.2796 16.7611 41.6458 18.0794 41.9062 19.6582C42.1829 21.2207 42.3213 23.1006 42.3213 25.2979V30.5713C42.3213 32.7523 42.1829 34.6322 41.9062 36.2109C41.6296 37.7897 41.2552 39.1243 40.7832 40.2148C40.3112 41.3053 39.766 42.1924 39.1475 42.876C38.529 43.5433 37.8779 44.0641 37.1943 44.4385C36.5107 44.8128 35.8109 45.057 35.0947 45.1709C34.3949 45.3011 33.7194 45.3662 33.0684 45.3662ZM33.1172 40.6055C33.6706 40.6055 34.1344 40.4671 34.5088 40.1904C34.8994 39.8975 35.2087 39.4255 35.4365 38.7744C35.6807 38.1234 35.8516 37.2689 35.9492 36.2109C36.0632 35.1367 36.1201 33.8102 36.1201 32.2314V23.9551C36.1201 22.3763 36.0632 21.0498 35.9492 19.9756C35.8516 18.9014 35.6807 18.0387 35.4365 17.3877C35.2087 16.7204 34.8994 16.2402 34.5088 15.9473C34.1344 15.6543 33.6706 15.5078 33.1172 15.5078C32.5312 15.5078 32.0348 15.6543 31.6279 15.9473C31.2373 16.2402 30.9118 16.7204 30.6514 17.3877C30.391 18.0387 30.2038 18.9014 30.0898 19.9756C29.9759 21.0498 29.9189 22.3763 29.9189 23.9551V32.2314C29.9189 33.8102 29.9759 35.1367 30.0898 36.2109C30.2038 37.2689 30.391 38.1234 30.6514 38.7744C30.9118 39.4255 31.2373 39.8975 31.6279 40.1904C32.0348 40.4671 32.5312 40.6055 33.1172 40.6055ZM47.8389 11.3818H54.0156V36.6504C54.0156 38.1315 54.2435 39.165 54.6992 39.751C55.1549 40.3206 55.8223 40.6055 56.7012 40.6055C57.3197 40.6055 57.9219 40.4346 58.5078 40.0928C59.0938 39.751 59.6227 39.2627 60.0947 38.6279V11.3818H66.2715V45H61.5596L60.9492 41.4111H60.9248C60.4365 42.1761 59.9157 42.819 59.3623 43.3398C58.8252 43.8444 58.2555 44.2513 57.6533 44.5605C57.0674 44.8535 56.4652 45.0651 55.8467 45.1953C55.2282 45.3255 54.6097 45.3906 53.9912 45.3906C52.0218 45.3906 50.5 44.707 49.4258 43.3398C48.3678 41.9727 47.8389 39.9056 47.8389 37.1387V11.3818ZM72.8389 0.59082H79.0156V45H72.8389V0.59082ZM85.876 3.30078H101.818V8.28125H92.1992V20.7568H99.7432V25.7373H92.1992V45H85.876V3.30078ZM105.7 11.3818H111.877V36.6504C111.877 38.1315 112.105 39.165 112.561 39.751C113.016 40.3206 113.684 40.6055 114.562 40.6055C115.181 40.6055 115.783 40.4346 116.369 40.0928C116.955 39.751 117.484 39.2627 117.956 38.6279V11.3818H124.133V45H119.421L118.811 41.4111H118.786C118.298 42.1761 117.777 42.819 117.224 43.3398C116.687 43.8444 116.117 44.2513 115.515 44.5605C114.929 44.8535 114.326 45.0651 113.708 45.1953C113.09 45.3255 112.471 45.3906 111.853 45.3906C109.883 45.3906 108.361 44.707 107.287 43.3398C106.229 41.9727 105.7 39.9056 105.7 37.1387V11.3818ZM130.7 0.59082H136.877V45H130.7V0.59082ZM143.444 0.59082H149.621V45H143.444V0.59082Z" fill="#DD7766"/>
</svg>
