<svg width="93" height="101" viewBox="0 0 93 101" fill="none" xmlns="http://www.w3.org/2000/svg">
<path d="M21.8053 45.5937C26.8522 35.5502 34.0075 26.6952 42.6481 19.7641C52.0196 12.2465 63.0915 7.10521 74.7773 4.80431C81.6065 3.45998 88.6058 3.0663 95.5523 3.66345C96.5287 3.74745 96.777 2.18868 95.7944 2.10468C83.2186 1.02286 70.4751 3.07784 58.8881 8.11745C48.2395 12.7496 38.706 19.8993 31.0718 28.8386C26.8969 33.7258 23.3192 39.1446 20.4085 44.9355C19.9547 45.8371 21.3552 46.4902 21.8053 45.5937Z" fill="#DD7766"/>
<path d="M44.2702 48.1289C42.9781 42.3899 41.5648 36.602 41.5934 30.7169C41.6124 25.1572 43.0735 19.4051 46.6216 15.3078L46.8454 15.5192C51.0944 26.0204 50.1027 38.5838 44.2702 48.1289Z" fill="#DD7766"/>
<path d="M57.4122 43.1455C55.8148 38.7879 54.2085 34.3584 53.781 29.7313C53.1585 22.9188 55.1123 16.187 57.0787 9.67942L57.1442 9.69815C59.3042 11.0621 60.8369 13.3442 61.7038 15.8022C62.5592 18.2609 62.8143 20.9025 62.8393 23.512C62.8969 30.4554 61.345 37.5691 57.4122 43.1455Z" fill="#DD7766"/>
<path d="M6.47681 58.0936C8.11557 53.7871 9.79398 49.4199 12.4813 45.7286C16.4434 40.298 22.2768 36.7179 27.9758 33.3114L28.0129 33.3709C28.7405 35.8732 28.403 38.6131 27.4533 41.0185C26.4947 43.4169 24.9685 45.532 23.2917 47.4643C18.8218 52.5972 13.04 56.7372 6.47681 58.0936Z" fill="#DD7766"/>
<path d="M35.1174 56.6114C33.5639 50.9394 31.8884 45.2249 31.6469 39.342C31.411 33.7851 32.6056 27.9643 35.9608 23.6968L36.1944 23.8967C40.9171 34.1826 40.5031 46.7871 35.1174 56.6114Z" fill="#DD7766"/>
<path d="M5.02693 32.876C8.16827 29.0281 12.7915 26.5115 17.6617 25.995C22.477 25.4885 27.4843 26.9389 31.3697 29.9918L31.2948 30.1008C27.6376 33.0087 23.1861 34.8437 18.5826 35.33C13.968 35.8125 9.22299 34.9549 5.02693 32.876Z" fill="#DD7766"/>
<path d="M66.175 36.0358C65.8112 31.403 65.4588 26.698 66.2942 22.1448C67.5311 15.4417 71.2271 9.55975 74.8747 3.89542L74.9341 3.93244C76.6463 5.86127 77.5071 8.48857 77.6797 11.0919C77.8413 13.6932 77.3741 16.2966 76.6955 18.8021C74.8786 25.467 71.4657 31.8308 66.175 36.0358Z" fill="#DD7766"/>
<path d="M62.9722 80.6234C58.2608 72.3203 55.0169 63.1528 53.3257 53.7171C51.6444 44.3367 51.4708 34.6938 52.8641 25.2932C53.6551 19.9529 54.9573 14.712 56.7606 9.6509C57.0444 8.85485 55.8584 8.33218 55.5728 9.13399C52.3264 18.2458 50.6947 27.9296 50.6507 37.6668C50.6075 47.4268 52.1643 57.21 55.267 66.4623C57.0105 71.6606 59.2549 76.667 61.9513 81.4182C62.3704 82.1574 63.3877 81.3557 62.9722 80.6234Z" fill="#FCB5A4"/>
<path d="M67.6006 56.6437C72.2172 61.0002 75.7348 67.0308 75.7602 73.4682C65.381 67.1171 56.01 58.1278 51.6019 46.5352C48.8434 55.5403 42.898 63.762 34.5427 67.5628C35.0774 64.1229 35.615 60.6543 36.7263 57.3674C37.8466 54.0811 39.5842 50.949 42.1659 48.7296C44.7567 46.5117 48.2633 45.2918 51.5845 45.9977L51.7341 46.4315C57.3158 49.3268 62.9815 52.282 67.6006 56.6437Z" fill="#FCB5A4"/>
<path d="M64.3454 30.7558C61.6782 29.1161 59.2327 27.0445 57.3691 24.478C55.5408 21.9595 54.3003 18.9506 54.081 15.8379L54.2707 15.8237C58.9731 16.8065 63.3669 19.3817 66.612 23.0599C69.8581 26.7388 71.9363 31.4923 72.4515 36.4204C70.3241 33.8333 67.1606 32.4891 64.3454 30.7558Z" fill="#FCB5A4"/>
<path d="M51.7175 29.0716C56.9973 31.0402 62.1568 33.6545 66.252 37.6394C70.3439 41.6193 73.2931 47.1149 73.3948 52.9003C68.9193 49.6451 64.1231 46.8153 60.0189 43.0697C55.9593 39.3743 52.5331 34.5751 51.7118 29.0752L51.7175 29.0716Z" fill="#FCB5A4"/>
<path d="M43.8066 28.3582C46.404 28.206 48.9975 28.6081 51.5652 29.0397C46.6789 36.7795 37.8506 41.6752 28.86 41.61C31.9729 38.7265 33.051 34.0029 36.2195 31.1844C38.2941 29.3437 41.0705 28.517 43.8066 28.3582Z" fill="#FCB5A4"/>
<path d="M46.2409 15.4961C48.8384 15.3439 51.4318 15.7461 53.9996 16.1776C49.1125 23.9175 40.2848 28.8122 31.2944 28.7479C34.4072 25.8635 35.4845 21.1409 38.6538 18.3223C40.7285 16.4816 43.5049 15.655 46.2409 15.4961Z" fill="#FCB5A4"/>
<path d="M53.7728 58.663C51.9279 62.3325 51.4913 66.6604 52.0968 70.7743C52.7179 74.9582 54.3799 78.9384 56.4882 82.5891C58.5973 86.2397 61.1595 89.5828 63.7185 92.9108C65.6722 88.439 66.1279 83.2698 65.0021 78.4674C64.1097 74.697 62.2824 71.2135 60.201 67.9734C58.1572 64.7956 55.8562 61.8094 53.7728 58.663Z" fill="#FCB5A4"/>
</svg>
