<svg width="375" height="182" viewBox="0 0 375 182" fill="none" xmlns="http://www.w3.org/2000/svg">
<path d="M167.96 144.45C124.895 144.229 90.9948 177.081 48.9861 181.58C28.595 183.761 8.73195 177.354 -7.19593 164.557C-23.8052 151.198 -34.6566 132.028 -38.8302 111.223C-43.4297 88.3722 -40.4826 64.4994 -32.2035 42.8418C-29.6994 36.2985 -26.7523 29.9597 -23.4304 23.8253C-21.2499 18.6964 -18.7628 13.6696 -15.969 8.83031C5.23974 -28.0609 41.0647 -54.7623 80.6033 -69.3313C103.567 -77.8001 127.842 -82.4008 152.219 -84.1389C176.613 -85.894 201.297 -84.9568 225.489 -81.4125C271.142 -74.6989 316.183 -56.5685 348.192 -22.3696C363.063 -6.47147 374.547 12.4939 380.729 33.4187C387.117 55.0593 387.986 78.5572 381.751 100.334C370.797 138.674 336.165 169.925 295.587 171.867C251.042 174.014 212.183 144.672 167.96 144.45Z" fill="#FFEBE1"/>
</svg>
